<?xml version="1.0" encoding="utf-8"?>
<!-- Generator: Adobe Illustrator 22.0.0, SVG Export Plug-In . SVG Version: 6.00 Build 0)  -->
<svg version="1.1" id="Camada_1" xmlns="http://www.w3.org/2000/svg" xmlns:xlink="http://www.w3.org/1999/xlink" x="0px" y="0px"
	 viewBox="0 0 500 250" style="enable-background:new 0 0 500 250;" xml:space="preserve">
<style type="text/css">
	.st0{fill:#CACACA;}
	.st1{fill:#20522A;}
	.st2{fill:#828282;}
</style>
<path class="st1" d="M241.1,8.9v89.3c0,5.7-1.7,10.8-5,15.5c-3.3,4.7-7.6,7.9-12.9,9.8v108.7c0,4.8-1.8,9-5.3,12.6
	c-3.5,3.5-7.7,5.3-12.6,5.3h-17.9c-4.8,0-9-1.8-12.6-5.3c-3.5-3.5-5.3-7.7-5.3-12.6V123.5c-5.3-1.9-9.6-5.1-12.9-9.8
	c-3.3-4.7-5-9.8-5-15.5V8.9c0-2.4,0.9-4.5,2.7-6.3c1.8-1.8,3.9-2.7,6.3-2.7c2.4,0,4.5,0.9,6.3,2.7s2.7,3.9,2.7,6.3v58
	c0,2.4,0.9,4.5,2.7,6.3c1.8,1.8,3.9,2.7,6.3,2.7s4.5-0.9,6.3-2.7c1.8-1.8,2.7-3.9,2.7-6.3v-58c0-2.4,0.9-4.5,2.7-6.3
	c1.8-1.8,3.9-2.7,6.3-2.7s4.5,0.9,6.3,2.7c1.8,1.8,2.7,3.9,2.7,6.3v58c0,2.4,0.9,4.5,2.7,6.3s3.9,2.7,6.3,2.7s4.5-0.9,6.3-2.7
	s2.7-3.9,2.7-6.3v-58c0-2.4,0.9-4.5,2.7-6.3c1.8-1.8,3.9-2.7,6.3-2.7s4.5,0.9,6.3,2.7S241.1,6.5,241.1,8.9z M348.2,8.9v223.2
	c0,4.8-1.8,9-5.3,12.6c-3.5,3.5-7.7,5.3-12.6,5.3h-17.9c-4.8,0-9-1.8-12.6-5.3c-3.5-3.5-5.3-7.7-5.3-12.6v-71.4h-31.3
	c-1.2,0-2.3-0.4-3.1-1.3s-1.3-1.9-1.3-3.1V44.6c0-12.3,4.4-22.8,13.1-31.5S291.3,0,303.6,0h35.7c2.4,0,4.5,0.9,6.3,2.7
	C347.3,4.4,348.2,6.5,348.2,8.9z"/>
</svg>
