<svg id="Camada_1" data-name="Camada 1" xmlns="http://www.w3.org/2000/svg" xmlns:xlink="http://www.w3.org/1999/xlink" viewBox="0 0 725.67 725.67"><defs><style>.cls-1{fill:#c9dec4;}.cls-2{fill:url(#Gradiente_sem_nome_53);}.cls-3{fill:none;}.cls-4{fill:#593230;}.cls-5{fill:#80b13e;}.cls-6{fill:url(#Gradiente_sem_nome_75);}.cls-7{fill:url(#Gradiente_sem_nome_75-2);}.cls-8{fill:url(#Gradiente_sem_nome_75-3);}.cls-9{fill:url(#Gradiente_sem_nome_75-4);}.cls-10{fill:url(#Gradiente_sem_nome_75-5);}.cls-11{fill:url(#Gradiente_sem_nome_75-6);}.cls-12{fill:url(#Gradiente_sem_nome_75-7);}.cls-13{fill:url(#Gradiente_sem_nome_75-8);}.cls-14{fill:url(#Gradiente_sem_nome_75-9);}.cls-15{fill:url(#Gradiente_sem_nome_75-10);}.cls-16{fill:url(#Gradiente_sem_nome_75-11);}.cls-17{fill:url(#Gradiente_sem_nome_75-12);}.cls-18{fill:url(#Gradiente_sem_nome_75-13);}.cls-19{fill:url(#Gradiente_sem_nome_75-14);}.cls-20{fill:url(#Gradiente_sem_nome_75-15);}.cls-21{fill:url(#Gradiente_sem_nome_75-16);}.cls-22{fill:url(#Gradiente_sem_nome_75-17);}.cls-23{fill:url(#Gradiente_sem_nome_75-18);}</style><linearGradient id="Gradiente_sem_nome_53" x1="362.83" y1="725.67" x2="362.83" gradientUnits="userSpaceOnUse"><stop offset="0" stop-color="#c5d9c0"/><stop offset="0.12" stop-color="#dde9da"/><stop offset="0.25" stop-color="#f0f5ee"/><stop offset="0.38" stop-color="#fbfcfb"/><stop offset="0.5" stop-color="#fff"/><stop offset="0.62" stop-color="#fbfcfb"/><stop offset="0.75" stop-color="#f0f5ee"/><stop offset="0.88" stop-color="#dde9da"/><stop offset="1" stop-color="#c5d9c0"/></linearGradient><linearGradient id="Gradiente_sem_nome_75" x1="437.72" y1="198.87" x2="437.72" y2="351.65" gradientUnits="userSpaceOnUse"><stop offset="0" stop-color="#7da13d"/><stop offset="0.39" stop-color="#7da13d"/><stop offset="0.71" stop-color="#6f8b3d"/><stop offset="1" stop-color="#64823d"/></linearGradient><linearGradient id="Gradiente_sem_nome_75-2" x1="526.28" y1="230.86" x2="526.28" y2="258.89" xlink:href="#Gradiente_sem_nome_75"/><linearGradient id="Gradiente_sem_nome_75-3" x1="362.43" y1="209.32" x2="362.43" y2="235.36" xlink:href="#Gradiente_sem_nome_75"/><linearGradient id="Gradiente_sem_nome_75-4" x1="347.2" y1="244.06" x2="347.2" y2="264.75" xlink:href="#Gradiente_sem_nome_75"/><linearGradient id="Gradiente_sem_nome_75-5" x1="492.09" y1="210.49" x2="492.09" y2="230.16" xlink:href="#Gradiente_sem_nome_75"/><linearGradient id="Gradiente_sem_nome_75-6" x1="463.33" y1="209.83" x2="463.33" y2="229.3" xlink:href="#Gradiente_sem_nome_75"/><linearGradient id="Gradiente_sem_nome_75-7" x1="484.55" y1="237.3" x2="484.55" y2="250" xlink:href="#Gradiente_sem_nome_75"/><linearGradient id="Gradiente_sem_nome_75-8" x1="506.15" y1="265.59" x2="506.15" y2="278.85" xlink:href="#Gradiente_sem_nome_75"/><linearGradient id="Gradiente_sem_nome_75-9" x1="464.72" y1="252.24" x2="464.72" y2="260.99" xlink:href="#Gradiente_sem_nome_75"/><linearGradient id="Gradiente_sem_nome_75-10" x1="400.94" y1="212.55" x2="400.94" y2="232.7" xlink:href="#Gradiente_sem_nome_75"/><linearGradient id="Gradiente_sem_nome_75-11" x1="416.57" y1="232.12" x2="416.57" y2="246.02" xlink:href="#Gradiente_sem_nome_75"/><linearGradient id="Gradiente_sem_nome_75-12" x1="483.06" y1="275.22" x2="483.06" y2="284.37" xlink:href="#Gradiente_sem_nome_75"/><linearGradient id="Gradiente_sem_nome_75-13" x1="446.25" y1="232.58" x2="446.25" y2="244.9" xlink:href="#Gradiente_sem_nome_75"/><linearGradient id="Gradiente_sem_nome_75-14" x1="401.63" y1="251.93" x2="401.63" y2="260.99" xlink:href="#Gradiente_sem_nome_75"/><linearGradient id="Gradiente_sem_nome_75-15" x1="383.42" y1="236.72" x2="383.42" y2="250.56" xlink:href="#Gradiente_sem_nome_75"/><linearGradient id="Gradiente_sem_nome_75-16" x1="369.19" y1="264.03" x2="369.19" y2="279.06" xlink:href="#Gradiente_sem_nome_75"/><linearGradient id="Gradiente_sem_nome_75-17" x1="431.78" y1="170.7" x2="431.78" y2="198.05" xlink:href="#Gradiente_sem_nome_75"/><linearGradient id="Gradiente_sem_nome_75-18" x1="433.53" y1="324.62" x2="433.53" y2="474.85" xlink:href="#Gradiente_sem_nome_75"/></defs><title>Icone</title><rect class="cls-1" width="725.67" height="725.67" rx="130.45" ry="130.45"/><rect class="cls-2" width="725.67" height="725.67" rx="130.45" ry="130.45"/><rect class="cls-3" width="725.67" height="725.67" rx="130.45" ry="130.45"/><g id="_Grupo_" data-name="&lt;Grupo&gt;"><g id="_Grupo_2" data-name="&lt;Grupo&gt;"><path id="_Caminho_composto_" data-name="&lt;Caminho composto&gt;" class="cls-4" d="M59.08,348.78V280.36h3.46L161.79,388l1.23,1.33q.61-7.34.61-22.39V301.43L163,285.2l-.31-1.64a85.25,85.25,0,0,0,8.85.62,36.06,36.06,0,0,0,5-.62,19.58,19.58,0,0,0-.31,2.34c-.1,1.09-.21,1.9-.31,2.42l-.92,20.2-1.92,48.53-.62,45.72.62,23h-2.77q-7.7-9-12.31-14.43l-33.08-37.06L68.85,313.6l-.31,19.19v46.65l.31,24.26,1.23,19.51a27.6,27.6,0,0,0-6.92-.63,27.07,27.07,0,0,0-6.92.63q1.23-18,1.53-26.84Z"/><path id="_Caminho_composto_2" data-name="&lt;Caminho composto&gt;" class="cls-4" d="M257.52,339.81,257.21,328v-1.56a38.11,38.11,0,0,0,8.23.62,42.28,42.28,0,0,0,8.46-.62q-1.23,15.92-1.23,23.95-.3,12.48-.3,36.74,0,3.6.15,11.16t.15,11.23q0,9.28.31,13.74c-4.21-.42-6.82-.63-7.85-.63a35.93,35.93,0,0,0-7.92.63v-4.14l.31-12.17V405q-10.69,19.11-32.47,19.11-16.31,0-25.46-10.22a23.89,23.89,0,0,1-5.73-11.9,101.14,101.14,0,0,1-1.2-17.2l.62-29.33-.62-20.13v-9a54,54,0,0,0,8.77.62,42.79,42.79,0,0,0,8.54-.62,124.8,124.8,0,0,0-.92,15q-1.31,24.18-1.31,38.69,0,15.13,3.46,21.77,6.09,12.41,21.16,12.4,9.85,0,15.69-6.08,6.63-5.77,8.54-16.23a141.88,141.88,0,0,0,.93-18.88Z"/><path id="_Caminho_composto_3" data-name="&lt;Caminho composto&gt;" class="cls-4" d="M321.4,298.93a29.78,29.78,0,0,1-.31,5.07l-1.23,24.65,21.38-.39v8.35L319.86,336a12.56,12.56,0,0,0-.62,4.44l-.31,44.78v8.27q0,11.16,3.08,18.06t12.62,6.91a20.69,20.69,0,0,0,4.61-.63c1.8-.41,3.31-.75,4.54-1V422a51.42,51.42,0,0,1-17,2.81,19.28,19.28,0,0,1-2.69-.2c-.92-.13-1.9-.29-2.92-.47l-3.24-.58a15,15,0,0,1-8.23-4.8,23.59,23.59,0,0,1-5.31-8.93,85.86,85.86,0,0,1-1.23-16.31l1.23-35.81V336l-13.23.62V328l13.23.7q0-4-.3-11.54T303.78,306Z"/><path id="_Caminho_composto_4" data-name="&lt;Caminho composto&gt;" class="cls-4" d="M361.85,396.37,361.23,328v-1.56l4.39.62a78.31,78.31,0,0,0,11.69-.62l-.92,14v4.84l.31,1.25,1.53-2.58a50.49,50.49,0,0,1,12-13.81q6.59-5,17.27-5a5,5,0,0,0,2.24.63l-1,5.07v4.83l-.31,4.14v2.57l-1.54.63c-.05-.05-.36-.28-.92-.67a2.66,2.66,0,0,0-1.31-.58,12.1,12.1,0,0,0-7.23-1.95q-8.39,0-12.93,5.07a29.2,29.2,0,0,0-5.38,8.35q-2.48,7.33-2.46,23.63v25l.61,19.82v1.56a42.7,42.7,0,0,0-8.54-.63,67.82,67.82,0,0,0-7.54.63v-5.47Z"/><path id="_Caminho_composto_5" data-name="&lt;Caminho composto&gt;" class="cls-4" d="M461.62,396.37,461,328v-1.56l4.62.62a86.75,86.75,0,0,0,12.31-.62l-1,14v4.84l.33,1.25,1.62-2.58a51.23,51.23,0,0,1,12.68-13.81q6.93-5,18.19-5a5.49,5.49,0,0,0,2.35.63l-1.05,5.07v4.83l-.32,4.14v2.57l-1.62.63c-.06-.05-.38-.28-1-.67a2.84,2.84,0,0,0-1.37-.58,13.28,13.28,0,0,0-7.62-1.95q-8.83,0-13.62,5.07a29,29,0,0,0-5.67,8.35q-2.6,7.33-2.59,23.63v25l.64,19.81v1.56a48.3,48.3,0,0,0-9-.62,77,77,0,0,0-7.94.62v-5.46Z"/><path id="_Caminho_composto_6" data-name="&lt;Caminho composto&gt;" class="cls-4" d="M529.62,404a34.48,34.48,0,0,0,10.94,10.42,26,26,0,0,0,13.62,4,22.74,22.74,0,0,0,14.5-5.07,15.75,15.75,0,0,0,6.4-12.88q0-9.12-5.87-12.52t-18.68-7q-12.88-4-16.94-7.65-8.6-7.71-8.59-18.17,0-14.43,9.77-22.43t24.75-8a55.41,55.41,0,0,1,22.53,4.84,3.53,3.53,0,0,0,.73.31,2,2,0,0,1,.65.31,126.4,126.4,0,0,0-5,14.36h-1.95a21.15,21.15,0,0,0-7.05-9.21,17.36,17.36,0,0,0-10.86-3.9q-8.34,0-13.82,4.41t-5.47,12.21q0,8.42,5.15,12.25t15.11,6.32q15.16,4.13,19.29,6.7,10.62,8.36,10.62,19.82,0,16.54-17.26,27.46-7.38,4.83-22,4.84-15.23,0-26.5-6.4,4-12.72,4.3-15.06Z"/><path id="_Caminho_composto_7" data-name="&lt;Caminho composto&gt;" class="cls-4" d="M696.33,374l-43.2-.63L622.9,374q0,19.81,9.68,31.48t27.52,11.66A40.6,40.6,0,0,0,676,413.65a42.57,42.57,0,0,0,13.7-9,5.84,5.84,0,0,1,3-1.25l-1.38,10.22q-17.84,12.17-36.47,12.17-2.83,0-15-2.26a42.24,42.24,0,0,1-15.64-6.95A43.06,43.06,0,0,1,612.28,404q-7.62-11.46-7.61-28.71A63,63,0,0,1,608.15,355,44.21,44.21,0,0,1,618,338.17q13.44-13.73,35.17-13.73,20.34,0,31.61,11.08T697,366Zm-43.2-42.83q-13.86,0-21.23,10.22T623.22,366q4.62,0,13.94.31t14,.32q4.79,0,14.35-.32t14.18-.31Q679.07,331.15,653.13,331.15Z"/></g><g id="_Grupo_3" data-name="&lt;Grupo&gt;"><path id="_Caminho_composto_8" data-name="&lt;Caminho composto&gt;" class="cls-4" d="M112.19,515.46l2.26-1.36q2.39,4.39,5.52,4.4a5.22,5.22,0,0,0,2.51-.63,4.39,4.39,0,0,0,1.79-1.67,4.33,4.33,0,0,0,.62-2.22,4.5,4.5,0,0,0-.91-2.62,21.39,21.39,0,0,0-4.55-4.27,23.64,23.64,0,0,1-4.14-3.63,6.66,6.66,0,0,1-1.41-4.07,6.15,6.15,0,0,1,.83-3.17,5.9,5.9,0,0,1,2.34-2.25,6.71,6.71,0,0,1,3.28-.82,7,7,0,0,1,3.52.93,12,12,0,0,1,3.46,3.43l-2.17,1.64a10.38,10.38,0,0,0-2.56-2.62,4.4,4.4,0,0,0-2.3-.63,3.68,3.68,0,0,0-2.64,1,3.23,3.23,0,0,0-1,2.41A4,4,0,0,0,117,501a6.34,6.34,0,0,0,1.31,1.77q.53.51,3.44,2.66a19.41,19.41,0,0,1,4.74,4.54,7.32,7.32,0,0,1,1.28,4,6.77,6.77,0,0,1-2.2,5,7.37,7.37,0,0,1-5.34,2.13,7.84,7.84,0,0,1-4.39-1.29A11.81,11.81,0,0,1,112.19,515.46Z"/><path id="_Caminho_composto_9" data-name="&lt;Caminho composto&gt;" class="cls-4" d="M152.56,500.74v19.67h-2.49V517a10.82,10.82,0,0,1-3.57,2.91,9.69,9.69,0,0,1-4.33,1,9.59,9.59,0,0,1-7.13-3,10.16,10.16,0,0,1-3-7.37,9.94,9.94,0,0,1,3-7.26,9.7,9.7,0,0,1,7.18-3,9.22,9.22,0,0,1,4.38,1,9.85,9.85,0,0,1,3.45,3.09v-3.62Zm-10.11,1.94a7.55,7.55,0,0,0-3.9,1,7.66,7.66,0,0,0-2.85,2.91,8,8,0,0,0,0,8,7.8,7.8,0,0,0,2.86,2.95,7.55,7.55,0,0,0,3.86,1.06,7.91,7.91,0,0,0,3.94-1.05,7.3,7.3,0,0,0,2.86-2.84,8,8,0,0,0,1-4A7.83,7.83,0,0,0,148,505,7.43,7.43,0,0,0,142.45,502.68Z"/><path id="_Caminho_composto_10" data-name="&lt;Caminho composto&gt;" class="cls-4" d="M157.93,500.74h2.53v9.19a19.62,19.62,0,0,0,.36,4.62,5.2,5.2,0,0,0,2.08,2.86,6.28,6.28,0,0,0,3.65,1.05,6.15,6.15,0,0,0,3.59-1,5.29,5.29,0,0,0,2-2.69,19.06,19.06,0,0,0,.38-4.82v-9.19h2.58v9.66a15.17,15.17,0,0,1-.95,6.13,7.19,7.19,0,0,1-2.85,3.22,10.39,10.39,0,0,1-9.58,0,7.11,7.11,0,0,1-2.88-3.25,15.94,15.94,0,0,1-.95-6.28Zm10-9.22h3.89l-5.34,5.57H164Z"/><path id="_Caminho_composto_11" data-name="&lt;Caminho composto&gt;" class="cls-4" d="M200.4,493.15v27.26h-2.5V517a10.82,10.82,0,0,1-3.57,2.91,10,10,0,0,1-11.46-2.05,10.16,10.16,0,0,1-3-7.37,10,10,0,0,1,3-7.26,9.7,9.7,0,0,1,7.17-3,9.26,9.26,0,0,1,4.39,1,9.83,9.83,0,0,1,3.44,3.09V493.15Zm-10.12,9.53a7.64,7.64,0,0,0-6.74,3.95,7.93,7.93,0,0,0-1.06,4,8,8,0,0,0,1.07,4,7.73,7.73,0,0,0,2.86,2.95,7.52,7.52,0,0,0,3.85,1.06,7.88,7.88,0,0,0,3.94-1.05,7.3,7.3,0,0,0,2.86-2.84,8.05,8.05,0,0,0,1-4,7.83,7.83,0,0,0-2.25-5.71A7.45,7.45,0,0,0,190.28,502.68Z"/><path id="_Caminho_composto_12" data-name="&lt;Caminho composto&gt;" class="cls-4" d="M222.69,513.89l2.13,1.12a11.73,11.73,0,0,1-2.42,3.32,9.55,9.55,0,0,1-3.1,1.93,10.76,10.76,0,0,1-3.89.66,9.39,9.39,0,0,1-7.53-3.16,10.78,10.78,0,0,1-.41-13.8,9.39,9.39,0,0,1,7.8-3.72,9.7,9.7,0,0,1,8,3.81,10.66,10.66,0,0,1,2.17,6.73h-17.7a8,8,0,0,0,2.19,5.61,7,7,0,0,0,5.23,2.2,8.39,8.39,0,0,0,2.93-.53,7.64,7.64,0,0,0,2.41-1.38A11.74,11.74,0,0,0,222.69,513.89Zm0-5.3a8.4,8.4,0,0,0-1.48-3.24,7.08,7.08,0,0,0-2.56-2,7.91,7.91,0,0,0-3.35-.74,7.23,7.23,0,0,0-5,1.86,8.39,8.39,0,0,0-2.29,4.07Z"/><path id="_Caminho_composto_13" data-name="&lt;Caminho composto&gt;" class="cls-4" d="M259.53,504.83l-2,1.25a8.38,8.38,0,0,0-7.09-3.46,8.21,8.21,0,0,0-6,2.31,7.58,7.58,0,0,0-2.37,5.62,8,8,0,0,0,1.09,4.05,7.68,7.68,0,0,0,3,2.94,8.73,8.73,0,0,0,4.28,1.05,8.62,8.62,0,0,0,7.07-3.46l2,1.32a9.43,9.43,0,0,1-3.79,3.3,12.08,12.08,0,0,1-5.41,1.17,10.69,10.69,0,0,1-7.74-3,9.62,9.62,0,0,1-3.07-7.21,10.33,10.33,0,0,1,1.44-5.31,10.08,10.08,0,0,1,3.95-3.82,11.55,11.55,0,0,1,5.62-1.37,12.23,12.23,0,0,1,3.77.59,10.47,10.47,0,0,1,3.08,1.56A8.49,8.49,0,0,1,259.53,504.83Z"/><path id="_Caminho_composto_14" data-name="&lt;Caminho composto&gt;" class="cls-4" d="M273.7,500.24a9.73,9.73,0,0,1,7.54,3.29,10.57,10.57,0,0,1-.16,14.31,10.39,10.39,0,0,1-14.77,0,10.55,10.55,0,0,1-.16-14.29A9.72,9.72,0,0,1,273.7,500.24Zm0,2.47a7.28,7.28,0,0,0-5.42,2.34,7.79,7.79,0,0,0-2.27,5.64,8,8,0,0,0,1,4,7.35,7.35,0,0,0,2.79,2.85,8,8,0,0,0,7.73,0,7.35,7.35,0,0,0,2.79-2.85,8,8,0,0,0,1-4,7.76,7.76,0,0,0-2.28-5.64A7.3,7.3,0,0,0,273.69,502.71Z"/><path id="_Caminho_composto_15" data-name="&lt;Caminho composto&gt;" class="cls-4" d="M288.62,500.74h2.53v3.4a9.85,9.85,0,0,1,2.71-2.75,7.72,7.72,0,0,1,4-1.15,6.58,6.58,0,0,1,2.71.56,5.75,5.75,0,0,1,2.1,1.49,7.89,7.89,0,0,1,1.42,2.67,9.28,9.28,0,0,1,3.15-3.52,7.47,7.47,0,0,1,4.08-1.2,6.36,6.36,0,0,1,3.6,1,6.05,6.05,0,0,1,2.31,2.87,15.24,15.24,0,0,1,.76,5.53v10.74h-2.58V509.67a14,14,0,0,0-.45-4.34,3.91,3.91,0,0,0-1.55-1.91,4.59,4.59,0,0,0-2.6-.72,5.7,5.7,0,0,0-3.36,1.08,6.21,6.21,0,0,0-2.22,2.89,18.28,18.28,0,0,0-.71,6v7.7H302V510.34a17.49,17.49,0,0,0-.44-4.83,4.11,4.11,0,0,0-1.55-2.05,4.47,4.47,0,0,0-2.62-.76,5.68,5.68,0,0,0-3.28,1.05,6.31,6.31,0,0,0-2.26,2.85,15.31,15.31,0,0,0-.73,5.48v8.33h-2.53Z"/><path id="_Caminho_composto_16" data-name="&lt;Caminho composto&gt;" class="cls-4" d="M352.7,504.83l-2,1.25a8.4,8.4,0,0,0-7.1-3.46,8.24,8.24,0,0,0-6,2.31,7.58,7.58,0,0,0-2.37,5.62,8,8,0,0,0,1.09,4.05,7.71,7.71,0,0,0,3,2.94,9.05,9.05,0,0,0,11.35-2.41l2,1.32a9.46,9.46,0,0,1-3.78,3.3,12.13,12.13,0,0,1-5.42,1.17,10.65,10.65,0,0,1-7.73-3,9.63,9.63,0,0,1-3.08-7.21,10.33,10.33,0,0,1,1.44-5.31,10.15,10.15,0,0,1,3.95-3.82,11.57,11.57,0,0,1,5.62-1.37,12.23,12.23,0,0,1,3.77.59,10.47,10.47,0,0,1,3.08,1.56A8.34,8.34,0,0,1,352.7,504.83Z"/><path id="_Caminho_composto_17" data-name="&lt;Caminho composto&gt;" class="cls-4" d="M366.88,500.24a9.71,9.71,0,0,1,7.53,3.29,10.56,10.56,0,0,1-.15,14.31,10.41,10.41,0,0,1-14.78,0,10.27,10.27,0,0,1-2.87-7.21,10.16,10.16,0,0,1,2.72-7.08A9.72,9.72,0,0,1,366.88,500.24Zm0,2.47a7.31,7.31,0,0,0-5.43,2.34,7.78,7.78,0,0,0-2.26,5.64,8,8,0,0,0,1,4,7.35,7.35,0,0,0,2.79,2.85,8,8,0,0,0,7.73,0,7.31,7.31,0,0,0,2.8-2.85,8,8,0,0,0,1-4,7.76,7.76,0,0,0-2.28-5.64A7.28,7.28,0,0,0,366.87,502.71Z"/><path id="_Caminho_composto_18" data-name="&lt;Caminho composto&gt;" class="cls-4" d="M381.79,500.74h2.53v3.4a9.87,9.87,0,0,1,2.72-2.75,7.69,7.69,0,0,1,4-1.15,6.63,6.63,0,0,1,2.72.56,5.75,5.75,0,0,1,2.1,1.49A8.07,8.07,0,0,1,397.3,505a9.22,9.22,0,0,1,3.16-3.52,7.46,7.46,0,0,1,4.07-1.2,6.36,6.36,0,0,1,3.6,1,6.13,6.13,0,0,1,2.32,2.87,15.46,15.46,0,0,1,.76,5.53v10.74h-2.59V509.67a14,14,0,0,0-.45-4.34,3.89,3.89,0,0,0-1.54-1.91,4.63,4.63,0,0,0-2.6-.72,5.71,5.71,0,0,0-3.37,1.08,6.28,6.28,0,0,0-2.22,2.89,18.34,18.34,0,0,0-.7,6v7.7h-2.53V510.34a17,17,0,0,0-.45-4.83,4.09,4.09,0,0,0-1.54-2.05,4.49,4.49,0,0,0-2.62-.76,5.66,5.66,0,0,0-3.28,1.05,6.25,6.25,0,0,0-2.26,2.85,15.27,15.27,0,0,0-.74,5.48v8.33h-2.53Z"/><path id="_Caminho_composto_19" data-name="&lt;Caminho composto&gt;" class="cls-4" d="M417.42,492.64a2.09,2.09,0,0,1,0,4.18,2,2,0,0,1-1.46-.61,2.09,2.09,0,0,1,0-2.95A2,2,0,0,1,417.42,492.64Zm-1.26,8.1h2.53v19.67h-2.53Z"/><path id="_Caminho_composto_20" data-name="&lt;Caminho composto&gt;" class="cls-4" d="M443.58,493.15v27.26h-2.49V517a10.82,10.82,0,0,1-3.57,2.91,9.69,9.69,0,0,1-4.33,1,9.59,9.59,0,0,1-7.13-3,10.16,10.16,0,0,1-3-7.37,9.94,9.94,0,0,1,3-7.26,9.7,9.7,0,0,1,7.18-3,9.19,9.19,0,0,1,4.38,1,9.85,9.85,0,0,1,3.45,3.09V493.15Zm-10.11,9.53a7.55,7.55,0,0,0-3.9,1,7.66,7.66,0,0,0-2.85,2.91,8,8,0,0,0,0,8,7.8,7.8,0,0,0,2.86,2.95,7.55,7.55,0,0,0,3.86,1.06,7.91,7.91,0,0,0,3.94-1.05,7.3,7.3,0,0,0,2.86-2.84,8,8,0,0,0,1-4A7.83,7.83,0,0,0,439,505,7.43,7.43,0,0,0,433.47,502.68Z"/><path id="_Caminho_composto_21" data-name="&lt;Caminho composto&gt;" class="cls-4" d="M468.91,500.74v19.67h-2.49V517a11,11,0,0,1-3.57,2.91,10,10,0,0,1-11.47-2.05,10.15,10.15,0,0,1-2.95-7.37,9.94,9.94,0,0,1,3-7.26,9.7,9.7,0,0,1,7.18-3,9.25,9.25,0,0,1,4.38,1,9.85,9.85,0,0,1,3.45,3.09v-3.62Zm-10.11,1.94a7.67,7.67,0,0,0-6.75,3.95,8,8,0,0,0,0,8,7.73,7.73,0,0,0,2.86,2.95,7.53,7.53,0,0,0,3.86,1.06,7.88,7.88,0,0,0,3.93-1.05,7.33,7.33,0,0,0,2.87-2.84,8.15,8.15,0,0,0,1-4,7.83,7.83,0,0,0-2.25-5.71A7.43,7.43,0,0,0,458.8,502.68Z"/><path id="_Caminho_composto_22" data-name="&lt;Caminho composto&gt;" class="cls-4" d="M504.49,493.15v27.26H502V517a10.82,10.82,0,0,1-3.57,2.91A10,10,0,0,1,487,517.89a10.15,10.15,0,0,1-2.95-7.37,9.94,9.94,0,0,1,3-7.26,9.7,9.7,0,0,1,7.18-3,9.25,9.25,0,0,1,4.38,1,9.74,9.74,0,0,1,3.44,3.09V493.15Zm-10.12,9.53a7.64,7.64,0,0,0-6.74,3.95,7.93,7.93,0,0,0-1.06,4,8,8,0,0,0,1.07,4,7.73,7.73,0,0,0,2.86,2.95,7.53,7.53,0,0,0,3.86,1.06,7.88,7.88,0,0,0,3.93-1.05,7.24,7.24,0,0,0,2.86-2.84,8.05,8.05,0,0,0,1-4,7.83,7.83,0,0,0-2.25-5.71A7.45,7.45,0,0,0,494.37,502.68Z"/><path id="_Caminho_composto_23" data-name="&lt;Caminho composto&gt;" class="cls-4" d="M526.78,513.89l2.13,1.12a11.73,11.73,0,0,1-2.42,3.32,9.55,9.55,0,0,1-3.1,1.93,10.76,10.76,0,0,1-3.89.66,9.35,9.35,0,0,1-7.52-3.16,10.64,10.64,0,0,1-2.72-7.13,10.53,10.53,0,0,1,2.3-6.67,9.39,9.39,0,0,1,7.8-3.72,9.7,9.7,0,0,1,8,3.81,10.66,10.66,0,0,1,2.17,6.73h-17.7a8,8,0,0,0,2.19,5.61,7,7,0,0,0,5.23,2.2,8.39,8.39,0,0,0,2.93-.53,7.53,7.53,0,0,0,2.41-1.38A11.74,11.74,0,0,0,526.78,513.89Zm0-5.3a8.4,8.4,0,0,0-1.48-3.24,7.08,7.08,0,0,0-2.56-2,7.91,7.91,0,0,0-3.35-.74,7.19,7.19,0,0,0-5,1.86,8.4,8.4,0,0,0-2.3,4.07Z"/><path id="_Caminho_composto_24" data-name="&lt;Caminho composto&gt;" class="cls-4" d="M542.67,500.74h2.69l6.6,14.34,6.53-14.34h2.71l-9,19.67h-.47Z"/><path id="_Caminho_composto_25" data-name="&lt;Caminho composto&gt;" class="cls-4" d="M581.61,513.89l2.13,1.12a11.73,11.73,0,0,1-2.42,3.32,9.55,9.55,0,0,1-3.1,1.93,10.76,10.76,0,0,1-3.89.66,9.37,9.37,0,0,1-7.52-3.16,10.64,10.64,0,0,1-2.72-7.13,10.53,10.53,0,0,1,2.3-6.67,9.39,9.39,0,0,1,7.8-3.72,9.7,9.7,0,0,1,8,3.81,10.6,10.6,0,0,1,2.17,6.73h-17.7a8,8,0,0,0,2.19,5.61,7,7,0,0,0,5.24,2.2,8.38,8.38,0,0,0,2.92-.53,7.53,7.53,0,0,0,2.41-1.38A11.74,11.74,0,0,0,581.61,513.89Zm0-5.3a8.4,8.4,0,0,0-1.48-3.24,7.08,7.08,0,0,0-2.56-2,7.91,7.91,0,0,0-3.35-.74,7.19,7.19,0,0,0-5,1.86,8.4,8.4,0,0,0-2.3,4.07Z"/><path id="_Caminho_composto_26" data-name="&lt;Caminho composto&gt;" class="cls-4" d="M588.15,500.74h2.59v2.88a9,9,0,0,1,2.44-2.54,4.8,4.8,0,0,1,2.67-.84,4.61,4.61,0,0,1,2.25.67L596.78,503a3.5,3.5,0,0,0-1.34-.34,3.61,3.61,0,0,0-2.44,1,6.48,6.48,0,0,0-1.79,3.22,30.55,30.55,0,0,0-.47,6.8v6.65h-2.59Z"/><path id="_Caminho_composto_27" data-name="&lt;Caminho composto&gt;" class="cls-4" d="M619.88,493.15v27.26h-2.49V517a11,11,0,0,1-3.57,2.91,10,10,0,0,1-11.47-2.05,10.15,10.15,0,0,1-3-7.37,9.94,9.94,0,0,1,3-7.26,9.7,9.7,0,0,1,7.18-3,9.25,9.25,0,0,1,4.38,1,9.85,9.85,0,0,1,3.45,3.09V493.15Zm-10.11,9.53a7.67,7.67,0,0,0-6.75,3.95,8,8,0,0,0,0,8,7.73,7.73,0,0,0,2.86,2.95,7.55,7.55,0,0,0,3.86,1.06,7.88,7.88,0,0,0,3.93-1.05,7.33,7.33,0,0,0,2.87-2.84,8.15,8.15,0,0,0,1-4A7.83,7.83,0,0,0,615.3,505,7.43,7.43,0,0,0,609.77,502.68Z"/><path id="_Caminho_composto_28" data-name="&lt;Caminho composto&gt;" class="cls-4" d="M645.21,500.74v19.67h-2.5V517a10.82,10.82,0,0,1-3.57,2.91,10,10,0,0,1-11.46-2.05,10.16,10.16,0,0,1-3-7.37,10,10,0,0,1,3-7.26,9.7,9.7,0,0,1,7.18-3,9.25,9.25,0,0,1,4.38,1,9.83,9.83,0,0,1,3.44,3.09v-3.62Zm-10.12,1.94a7.64,7.64,0,0,0-6.74,3.95,7.93,7.93,0,0,0-1.06,4,8,8,0,0,0,1.07,4,7.73,7.73,0,0,0,2.86,2.95,7.52,7.52,0,0,0,3.85,1.06,7.88,7.88,0,0,0,3.94-1.05,7.24,7.24,0,0,0,2.86-2.84,8.05,8.05,0,0,0,1-4,7.83,7.83,0,0,0-2.25-5.71A7.45,7.45,0,0,0,635.09,502.68Z"/><path id="_Caminho_composto_29" data-name="&lt;Caminho composto&gt;" class="cls-4" d="M670.53,493.15v27.26H668V517a10.82,10.82,0,0,1-3.57,2.91A10,10,0,0,1,653,517.89a10.16,10.16,0,0,1-3-7.37,10,10,0,0,1,3-7.26,9.68,9.68,0,0,1,7.17-3,9.26,9.26,0,0,1,4.39,1,9.91,9.91,0,0,1,3.44,3.09V493.15Zm-10.11,9.53a7.64,7.64,0,0,0-6.74,3.95,7.93,7.93,0,0,0-1.06,4,8,8,0,0,0,1.06,4,7.75,7.75,0,0,0,2.87,2.95,7.49,7.49,0,0,0,3.85,1.06,7.88,7.88,0,0,0,3.94-1.05,7.3,7.3,0,0,0,2.86-2.84,8,8,0,0,0,1-4A7.83,7.83,0,0,0,666,505,7.42,7.42,0,0,0,660.42,502.68Z"/><path id="_Caminho_composto_30" data-name="&lt;Caminho composto&gt;" class="cls-4" d="M692.82,513.89,695,515a11.56,11.56,0,0,1-2.43,3.32,9.41,9.41,0,0,1-3.09,1.93,10.79,10.79,0,0,1-3.89.66,9.39,9.39,0,0,1-7.53-3.16,10.63,10.63,0,0,1-2.71-7.13,10.47,10.47,0,0,1,2.3-6.67,9.39,9.39,0,0,1,7.79-3.72,9.71,9.71,0,0,1,8,3.81,10.72,10.72,0,0,1,2.17,6.73h-17.7a8,8,0,0,0,2.19,5.61,7,7,0,0,0,5.23,2.2,8.33,8.33,0,0,0,2.92-.53,7.59,7.59,0,0,0,2.42-1.38A12,12,0,0,0,692.82,513.89Zm0-5.3a8.25,8.25,0,0,0-1.47-3.24,7.17,7.17,0,0,0-2.56-2,7.91,7.91,0,0,0-3.35-.74,7.23,7.23,0,0,0-5,1.86,8.48,8.48,0,0,0-2.3,4.07Z"/></g><path id="_Caminho_composto_31" data-name="&lt;Caminho composto&gt;" class="cls-4" d="M105.47,506.84c-2.39-.31-4.4-.56-6.44-.77-4-.42-8-.82-11.89-1.2l-5.06-.51H82l.21-1.45c.21-1.42.42-2.81.63-4.21.1-.65.19-1.31.29-2,.32-2.14.64-4.34.93-6.52a12.76,12.76,0,0,0,.06-1.85v-1.21l-.24,0a5.36,5.36,0,0,0,0-1.95l-.19-.78L83,485l-.52.51,0-.42.25-2.07-.59.95v-.45H82l.06-.52.21-1.73-1,1.4a6.92,6.92,0,0,0-1.17,2.63c-.41,1.87-.74,3.57-1,5.19-.08.51-.19,1-.3,1.54a13.4,13.4,0,0,0-.42,3.72,3.07,3.07,0,0,1-.19,1,3.32,3.32,0,0,0-.22,1.5,24.92,24.92,0,0,0-.8,4.72l-.06.61a2.72,2.72,0,0,0,0,.28l-.52-.06c-.73-.09-1.45-.17-2.16-.27L71.13,503c-2.26-.31-4.6-.63-6.91-.9a22.79,22.79,0,0,0-2.47-.11h-1.5l0,.28a7.55,7.55,0,0,0-.83-.05,3.8,3.8,0,0,0-1,.13l-.7.2.48.55.53.58-.14,0h-.06a.65.65,0,0,0-.54.29H56.67l0,.21-.38-.07-1.56-.28,1.17,1.07a5.84,5.84,0,0,0,2.5,1.29c1.06.26,2.15.45,3.2.63l.73.13,1.63.26,1.27.19,1.51.27,1.06.19.27,0a1,1,0,0,0,.24,0l.32-.08.2-.05.57.12a8.86,8.86,0,0,0,1.83.3,9.57,9.57,0,0,1,1.54.23c.32.07.64.14,1,.19.82.12,1.66.22,2.49.3h.18l.35,0c0,.65,0,1.31,0,2,0,1.61-.07,3.26,0,4.89.08,2.52.22,5.07.36,7.53.06,1,.11,2,.16,3a1.23,1.23,0,0,0,.12.52c.1.2.21.39.32.59s.22.38.32.58a2,2,0,0,1,.11.28,1.38,1.38,0,0,0,.5.78c.12.08.14.13.16.4a2,2,0,0,0,0,.24c0,.11,0,.23,0,.34s.06.38.1.57a.89.89,0,0,0,.43.63,1.51,1.51,0,0,1,.73.76l.06.12.12.07a5,5,0,0,1,.9.64l1,.89-.23-1.31,0-.19c-.14-.79-.29-1.61-.41-2.41A78.5,78.5,0,0,1,81,516c0-1.2.12-2.41.2-3.64,0-.47.07-.94.11-1.41s.09-1.17.13-1.76h0l.5,0,1.29.08,3.39.09,2,.05,3.69.11,1,0c.84,0,1.7,0,2.54.09a13.64,13.64,0,0,1,1.37.19L98,510l.09,0a2.88,2.88,0,0,0,.33,0,1,1,0,0,0,.25,0l1-.32.54-.17.19,0a1,1,0,0,0,.7-.31c.07-.09.1-.09.15-.09l.22,0a1.33,1.33,0,0,0,.28,0l.31,0,.62,0h0a.87.87,0,0,0,.66-.26,1.23,1.23,0,0,1,.53-.37h0l0,0a3.2,3.2,0,0,1,.94-.39l.08,0,.07,0h0a5,5,0,0,1,.57-.33L107,507ZM58,504.41Z"/><path id="_Caminho_composto_32" data-name="&lt;Caminho composto&gt;" class="cls-5" d="M104.1,505.47c-2.39-.31-4.4-.56-6.44-.77-4-.42-8-.82-11.89-1.2L80.71,503h-.13l.21-1.45c.22-1.41.42-2.81.63-4.21.1-.65.19-1.31.29-2,.32-2.14.64-4.34.93-6.52A12.76,12.76,0,0,0,82.7,487v-1.21l-.24,0a5.36,5.36,0,0,0,0-1.95l-.19-.78-.57.57-.52.51,0-.42.25-2.07-.59.95v-.45h-.24l.06-.52.21-1.73-1,1.4a6.92,6.92,0,0,0-1.17,2.63c-.41,1.87-.74,3.57-1,5.19-.08.51-.19,1-.3,1.54a13.4,13.4,0,0,0-.42,3.72,3,3,0,0,1-.19,1,3.48,3.48,0,0,0-.22,1.5,24.92,24.92,0,0,0-.8,4.72l-.06.61a2.72,2.72,0,0,0,0,.28l-.52-.06c-.73-.09-1.45-.17-2.16-.27l-3.24-.43c-2.27-.31-4.61-.63-6.92-.9a22.79,22.79,0,0,0-2.47-.11h-1.5l0,.28a7.55,7.55,0,0,0-.83-.05,3.8,3.8,0,0,0-1,.13l-.7.2.48.55.53.58-.14,0h-.06a.65.65,0,0,0-.54.29H55.3l0,.21-.38-.07-1.56-.28,1.17,1.07a5.74,5.74,0,0,0,2.5,1.29c1.06.26,2.15.45,3.2.63l.73.13c.54.1,1.1.18,1.63.26l1.27.19,1.51.27,1.06.19.27,0a1,1,0,0,0,.24,0l.32-.08.2-.05.57.12a8.86,8.86,0,0,0,1.83.3,9.57,9.57,0,0,1,1.54.23c.32.07.64.14,1,.19.82.12,1.66.22,2.49.3H75l.35,0c0,.66,0,1.31,0,2,0,1.61-.07,3.26,0,4.89.08,2.52.22,5.07.36,7.54.06,1,.11,2,.16,3a1.23,1.23,0,0,0,.12.52l.33.59c.1.19.21.38.31.58a2,2,0,0,1,.11.28,1.38,1.38,0,0,0,.5.78c.12.08.14.13.16.4a2,2,0,0,0,0,.24c0,.11,0,.23,0,.34s.06.38.11.57a.88.88,0,0,0,.42.63,1.51,1.51,0,0,1,.73.76l.06.12.12.07a5,5,0,0,1,.9.64l1,.89L80.54,531l0-.19c-.14-.79-.29-1.6-.41-2.41a78.5,78.5,0,0,1-.48-13.79c0-1.2.12-2.41.2-3.64,0-.47.07-.94.11-1.41s.09-1.17.13-1.76v0h0l.5,0,1.29.08,3.39.09,2,.05,3.69.11,1,0c.84,0,1.7,0,2.54.1a11.2,11.2,0,0,1,1.37.18l.72.11.09,0a3.11,3.11,0,0,0,.33,0,1,1,0,0,0,.25,0l1-.32.54-.17.19,0a1,1,0,0,0,.7-.31c.07-.09.1-.09.15-.09l.22,0,.28,0,.31,0,.62,0h0a.87.87,0,0,0,.66-.26,1.14,1.14,0,0,1,.53-.36l0,0,0,0a3.2,3.2,0,0,1,.94-.39l.08,0,.07-.05h0a5,5,0,0,1,.57-.33l1.38-.66ZM56.65,503Z"/><path id="_Caminho_" data-name="&lt;Caminho&gt;" class="cls-5" d="M56.24,448.32c28.35-1.48,56.71-2.59,85.06-3.74l21.27-.8,21.26-.74,21.27-.66,21.27-.61c14.17-.37,28.35-1.18,42.53-1.78,7.09-.28,14.18-.47,21.27-.48s14.17.12,21.26.39c14.18.55,28.36,1.44,42.54,2.75,7.08.66,14.17,1.42,21.26,2.33,3.55.47,7.09.95,10.64,1.5s7.08,1.13,10.63,1.84a1,1,0,0,1,.75,1.13,1,1,0,0,1-.75.74c-3.55.71-7.09,1.3-10.63,1.84s-7.09,1-10.64,1.51c-7.09.91-14.18,1.67-21.26,2.33q-21.27,2-42.54,2.75c-7.09.26-14.17.41-21.26.39s-14.18-.2-21.27-.49c-14.18-.59-28.36-1.4-42.53-1.77l-21.27-.61-21.27-.66-21.26-.74-21.27-.8c-28.35-1.15-56.71-2.27-85.06-3.75a.93.93,0,0,1-.89-1A.94.94,0,0,1,56.24,448.32Z"/><path id="_Caminho_2" data-name="&lt;Caminho&gt;" class="cls-5" d="M697,450.17c-19,1.45-38,2.53-57,3.65l-14.26.78-14.25.73L597.2,456l-14.26.59c-9.5.37-19,1.15-28.51,1.74-4.75.28-9.5.46-14.25.47s-9.5-.12-14.25-.38c-9.51-.54-19-1.39-28.51-2.68-4.75-.65-9.5-1.38-14.26-2.28-2.37-.45-4.75-.92-7.12-1.46s-4.75-1.11-7.13-1.8v-1.82c2.38-.7,4.75-1.27,7.13-1.8s4.75-1,7.12-1.46c4.76-.9,9.51-1.63,14.26-2.28,9.5-1.29,19-2.14,28.51-2.68,4.75-.26,9.5-.4,14.25-.38s9.5.19,14.25.47c9.51.58,19,1.37,28.51,1.73l14.26.59,14.25.65,14.25.72,14.26.78c19,1.12,38,2.21,57,3.66Z"/><g id="_Grupo_4" data-name="&lt;Grupo&gt;"><path class="cls-6" d="M503.74,256.73c-1.72.19-3.9.2-6.27.66s-5,1.12-8,1.9a82.62,82.62,0,0,0-8.92,3.45,80.26,80.26,0,0,0-9.16,5.06c-3,2-5.84,4.22-8.73,6.52-2.54,2.53-5.4,5-7.76,7.67a99,99,0,0,0-12.08,16.77,82.32,82.32,0,0,0-4.29,8.21c-.37.78-.59,1.45-.91,2.21,1.08-7.09,2.41-14.46,4.12-21.79A153.12,153.12,0,0,1,449.47,263a107.41,107.41,0,0,1,5.29-10.63,75.3,75.3,0,0,1,6.28-8.83,59.54,59.54,0,0,1,6.74-6.62,40,40,0,0,1,6.39-4.17,38.63,38.63,0,0,1,4.61-2.19l1.7-.72-1.84.4a29,29,0,0,0-5.18,1.42A45.51,45.51,0,0,0,466,235.1a48.7,48.7,0,0,0-8.36,6.16,60.83,60.83,0,0,0-7.87,8.85,77.51,77.51,0,0,0-6.55,10.9,92.86,92.86,0,0,0-5.14,12.24c-.58,1.69-1,3.45-1.51,5.17,0-1,0-2,0-3,0-19.14-.55-38.27-1.49-52.62-.37-6.55-1-12.05-1.3-16.14h0c0-.12,0-.3,0-.52,0-.41,0-.57-.06-.83h0c-.38-4.09-.7-6.44-.7-6.44s-.35,2.39-.76,6.58-1.06,10.16-1.5,17.33c-1,14.36-1.69,33.49-1.76,52.63,0,2.88,0,5.76,0,8.62-1-3.62-1.9-7.26-3.14-10.78A93,93,0,0,0,420.7,261a78.13,78.13,0,0,0-6.56-10.9,61.82,61.82,0,0,0-7.86-8.84,48.09,48.09,0,0,0-8.37-6.16,44.4,44.4,0,0,0-7.5-3.43,27.65,27.65,0,0,0-5.17-1.42l-1.84-.41,1.7.73a37.1,37.1,0,0,1,4.61,2.19,40.8,40.8,0,0,1,6.4,4.16,62.16,62.16,0,0,1,6.74,6.62,74.11,74.11,0,0,1,6.27,8.83c.06.1.1.21.15.31l.91,1.78.38.78c.29.57.69,1.38,1.18,2.4.9,1.79,1.85,3.46,2.67,5.36a150.79,150.79,0,0,1,7.68,24.38c1.07,4.52,2,9.06,2.77,13.56a82.45,82.45,0,0,0-8.48-15.53c-1.91-2.8-4.41-5.34-6.56-8a91.42,91.42,0,0,0-7.83-6.79c-2.93-1.89-5.46-4-8.51-5.27s-5.61-2.85-8.43-3.56-5.33-1.45-7.57-2-4.37-.48-6-.67c-3.33-.31-5.19-.38-5.19-.38s1.79.64,4.86,1.57c1.51.5,3.4.92,5.43,1.72s4.14,2,6.54,3,4.55,2.78,7.1,4.17,4.57,3.62,7.1,5.41,4.31,4.39,6.68,6.53c1.91,2.48,4.12,4.83,5.84,7.46.57.88,2.67,3.77,5.13,7.89a70.64,70.64,0,0,1,4.37,8,61.37,61.37,0,0,1,4.28,14.7c.52,2.7.81,5,1,6.49q.49,4.53,1,9.06c-.43,3.55-.76,7.32-.94,11.28-.09,1.92-.14,3.79-.16,5.62h16.92c-.14-1.1-.32-2.69-.47-4.61-.5-6.67-1.38-20.19,4.23-35.61a68.23,68.23,0,0,1,9.45-17.91c2.44-3.24,5.8-6.92,6.49-7.74,2.16-2.58,4.74-4.87,7.05-7.3,2.68-2.12,5-4.48,7.66-6.42,2.79-1.76,5.17-3.89,7.89-5.33s5.16-3.05,7.67-4.13,4.89-2,7-3,4.13-1.21,5.73-1.71c3.22-.92,5.12-1.53,5.12-1.53S507.21,256.45,503.74,256.73Z"/></g><g id="_Grupo_5" data-name="&lt;Grupo&gt;"><path class="cls-7" d="M542.44,238.72a14.15,14.15,0,0,0-1.06-3.4,10.54,10.54,0,0,0-1.67-2.51,11,11,0,0,0-1.47-1.46c-.37-.31-.62-.49-.62-.49l-.82.31c-.47.21-1.28.46-2,.76s-1.68.61-2.72.91l-3,.9c-1.07.28-2.09.57-3,.87a23.35,23.35,0,0,0-2.87,1A17.67,17.67,0,0,0,520.5,237a21.31,21.31,0,0,0-2.4,1.71,20,20,0,0,0-4,4.52,24.7,24.7,0,0,0-2.67,5.67c-.34,1-.59,2-.82,2.85s-.35,1.82-.49,2.56a7.16,7.16,0,0,0-.16,1.23c7.55-3.51,19.5-9.5,21.38-13.11,0,0-2.92,7.51-20,15,.4.13.87.3,1.37.42a24.58,24.58,0,0,0,3.14.68,28.82,28.82,0,0,0,3.78.37,26.85,26.85,0,0,0,8.48-1.14,22.79,22.79,0,0,0,7.85-4.2,19.83,19.83,0,0,0,3.11-3.17,15.91,15.91,0,0,0,3.38-7.72A17.68,17.68,0,0,0,542.44,238.72Z"/></g><g id="_Grupo_6" data-name="&lt;Grupo&gt;"><path class="cls-8" d="M343.93,222.81a20.11,20.11,0,0,0,2.57,3.94,23.36,23.36,0,0,0,3.62,3.38,26.33,26.33,0,0,0,4.34,2.59,27.6,27.6,0,0,0,9.68,2.56,28.92,28.92,0,0,0,13.12-2.07,27.28,27.28,0,0,0,3-1.46,11.46,11.46,0,0,0,1.3-.77c-20.49-3.87-26.12-11-26.12-11,3.2,3.35,17.79,6.81,26.9,8.72a9.34,9.34,0,0,0-.6-1.25c-.39-.73-.84-1.68-1.39-2.57s-1.15-1.87-1.83-2.81a31.21,31.21,0,0,0-4.72-5.3,25.28,25.28,0,0,0-5.72-3.82,25,25,0,0,0-3.09-1.21,20.57,20.57,0,0,0-3.23-.76,27.51,27.51,0,0,0-3.38-.4c-1.06-.11-2.23-.18-3.45-.22s-2.43-.17-3.45-.22c-1.2-.08-2.23-.19-3.17-.32s-1.83-.22-2.38-.32l-1-.13a5.31,5.31,0,0,0-.48.65,9.83,9.83,0,0,0-1,1.88,10,10,0,0,0-.9,3,14.92,14.92,0,0,0,.05,3.82A19.33,19.33,0,0,0,343.93,222.81Z"/></g><g id="_Grupo_7" data-name="&lt;Grupo&gt;"><path class="cls-9" d="M364.14,259.86a9.6,9.6,0,0,0,1-.8c-18.21-1-24.21-6.54-24.21-6.54,3.29,2.51,16.37,3.84,24.51,4.45a9.34,9.34,0,0,0-.73-1c-.45-.58-1-1.35-1.61-2.05s-1.29-1.48-2-2.2a31.36,31.36,0,0,0-4.93-4,21.64,21.64,0,0,0-8.38-3.31,18,18,0,0,0-2.9-.29,22.63,22.63,0,0,0-3,0c-.94,0-2,.1-3,.2s-2.12.13-3,.2c-1,.07-1.94.09-2.78.09s-1.59,0-2.08,0-.86,0-.86,0-.13.22-.31.62a8.72,8.72,0,0,0-.59,1.73,8.35,8.35,0,0,0-.27,2.68,12.86,12.86,0,0,0,.67,3.27,17.21,17.21,0,0,0,1.8,3.39,19.85,19.85,0,0,0,2.84,3.1,22.6,22.6,0,0,0,3.66,2.48,25.63,25.63,0,0,0,4.15,1.74,25,25,0,0,0,8.72,1.1,24.51,24.51,0,0,0,7.81-1.73,25,25,0,0,0,3.11-1.52A24.38,24.38,0,0,0,364.14,259.86Z"/></g><g id="_Grupo_8" data-name="&lt;Grupo&gt;"><path class="cls-10" d="M495.37,218.55s-1.74,5.22-13.19,10.8a5.69,5.69,0,0,0,.95.25,17.5,17.5,0,0,0,2.18.4,19.61,19.61,0,0,0,2.62.16,18.52,18.52,0,0,0,5.77-1,15.33,15.33,0,0,0,5.24-3.07,14.32,14.32,0,0,0,2-2.24,13.27,13.27,0,0,0,1.4-2.62,12.43,12.43,0,0,0,.64-2.77,11.72,11.72,0,0,0-.16-2.7,10.92,10.92,0,0,0-.85-2.31,7.79,7.79,0,0,0-1.24-1.68,11.08,11.08,0,0,0-1.06-1l-.45-.32-.55.24c-.32.15-.87.35-1.37.57s-1.12.46-1.84.69-1.27.41-2,.68-1.42.45-2,.68a13.85,13.85,0,0,0-1.93.78,10.29,10.29,0,0,0-1.77,1,12.41,12.41,0,0,0-1.58,1.23,12.65,12.65,0,0,0-2.57,3.2,16.45,16.45,0,0,0-1.63,3.95,19.37,19.37,0,0,0-.46,2c-.12.63-.18,1.27-.24,1.76a4.58,4.58,0,0,0-.08.86C486.22,225.48,494.22,221.08,495.37,218.55Z"/></g><g id="_Grupo_9" data-name="&lt;Grupo&gt;"><path class="cls-11" d="M456.43,222.52a11,11,0,0,0,3.13,3.78,14.37,14.37,0,0,0,4.31,2.22,14.89,14.89,0,0,0,2.18.52,14.24,14.24,0,0,0,1.9.22,5.12,5.12,0,0,0,.86,0c-7.26-7.34-6.79-12-6.79-12,0,2.32,4.92,7.85,8.07,11.2a5.19,5.19,0,0,0,.24-.7c.13-.43.32-1,.43-1.49a14.94,14.94,0,0,0,.35-1.72,13.49,13.49,0,0,0,.1-3.58,9.77,9.77,0,0,0-.92-3.23,12.82,12.82,0,0,0-.84-1.39,7.7,7.7,0,0,0-1.09-1.22,12,12,0,0,0-1.28-1.1c-.43-.35-.91-.7-1.41-1.06L464.28,212a13.63,13.63,0,0,1-1.24-1c-.33-.3-.71-.6-.91-.8l-.36-.33-.47.14a12.83,12.83,0,0,0-1.2.52,7.82,7.82,0,0,0-1.61,1.06,10.82,10.82,0,0,0-1.53,1.66,11.58,11.58,0,0,0-1.09,2.14,11.74,11.74,0,0,0-.49,2.4,10.76,10.76,0,0,0,.2,2.46A11.24,11.24,0,0,0,456.43,222.52Z"/></g><g id="_Grupo_10" data-name="&lt;Grupo&gt;"><path class="cls-12" d="M475.66,238.5c-.63.19-1.22.42-1.71.6a5.58,5.58,0,0,0-.8.31c4.46,2.05,11.82,5.19,14.59,4.86,0,0-5.46,1.11-15.33-3.69a5.44,5.44,0,0,0,.17.7,10,10,0,0,0,.56,1.52,12.31,12.31,0,0,0,.95,1.7,12.11,12.11,0,0,0,3.33,3.18,14,14,0,0,0,5,2,18.26,18.26,0,0,0,2.88.32,18,18,0,0,0,3-.22,13.48,13.48,0,0,0,5.16-2,11.78,11.78,0,0,0,1.74-1.5,6,6,0,0,0,1-1.48,5.92,5.92,0,0,0,.44-1.07c.06-.25.1-.4.1-.4l-.44-.25c-.28-.13-.69-.4-1.1-.61a14.81,14.81,0,0,1-1.39-.86l-1.47-1c-.51-.35-1-.69-1.47-1a10.41,10.41,0,0,0-1.52-.88,8.09,8.09,0,0,0-1.63-.7,10.94,10.94,0,0,0-1.77-.47,15.55,15.55,0,0,0-4-.25,22.29,22.29,0,0,0-4.25.64A20,20,0,0,0,475.66,238.5Z"/></g><g id="_Grupo_11" data-name="&lt;Grupo&gt;"><path class="cls-13" d="M516.48,272.64a12.8,12.8,0,0,1-1.2-1L514,270.42c-.43-.42-.83-.83-1.25-1.19a12.68,12.68,0,0,0-1.31-1.08,9.17,9.17,0,0,0-1.45-.93,14.64,14.64,0,0,0-1.65-.72,15.86,15.86,0,0,0-3.87-.81,22.29,22.29,0,0,0-4.32,0c-.71.05-1.43.15-2.07.25s-1.29.24-1.81.34a7.74,7.74,0,0,0-.85.19c4,2.67,10.56,6.82,13.35,6.88,0,0-5.6.31-14.32-5.84a5.78,5.78,0,0,0,0,.71,9,9,0,0,0,.22,1.58,11,11,0,0,0,.59,1.82,11.29,11.29,0,0,0,2.6,3.6,13,13,0,0,0,4.51,2.67,15.43,15.43,0,0,0,2.77.73,16.38,16.38,0,0,0,3,.21,17.93,17.93,0,0,0,2.91-.37,17,17,0,0,0,2.58-.86,12.33,12.33,0,0,0,2-1.24,6.36,6.36,0,0,0,1.29-1.32,6.24,6.24,0,0,0,.65-1,3.52,3.52,0,0,0,.19-.38,3.92,3.92,0,0,0-.39-.3C517.19,273.24,516.84,272.91,516.48,272.64Z"/></g><g id="_Grupo_12" data-name="&lt;Grupo&gt;"><path class="cls-14" d="M456.35,254.49a2.11,2.11,0,0,0,.12.48,6.46,6.46,0,0,0,.38,1,7.49,7.49,0,0,0,.67,1.18,8.12,8.12,0,0,0,2.28,2.19,9.53,9.53,0,0,0,3.44,1.38,14.42,14.42,0,0,0,2,.22,13.84,13.84,0,0,0,2-.15,14.47,14.47,0,0,0,1.92-.53,10.74,10.74,0,0,0,1.63-.86,7.7,7.7,0,0,0,1.21-1,5,5,0,0,0,.69-1,6,6,0,0,0,.3-.74c0-.17.06-.28.06-.28l-.3-.17c-.19-.08-.47-.27-.76-.41a10.25,10.25,0,0,1-.95-.6l-1-.67c-.34-.24-.68-.48-1-.68a8.86,8.86,0,0,0-1.05-.61,5.9,5.9,0,0,0-1.13-.48,7.51,7.51,0,0,0-1.22-.32,10.63,10.63,0,0,0-2.75-.17,15.81,15.81,0,0,0-2.94.43c-.47.11-.94.25-1.37.39s-.84.28-1.17.4a4.89,4.89,0,0,0-.55.21c3.08,1.42,8.15,3.58,10.06,3.35C466.93,257.05,463.16,257.82,456.35,254.49Z"/></g><g id="_Grupo_13" data-name="&lt;Grupo&gt;"><path class="cls-15" d="M394.74,230c.23.52.5,1,.71,1.42a6.49,6.49,0,0,0,.37.66c2.5-3.71,6.28-9.8,5.87-12.1,0,0,1.34,4.53-4.45,12.72.26,0,.55-.08.84-.14a14,14,0,0,0,1.83-.46,16.13,16.13,0,0,0,2.06-.8,13.24,13.24,0,0,0,3.84-2.75,10.17,10.17,0,0,0,2.38-4.14,9.06,9.06,0,0,0,.12-4.85,10.22,10.22,0,0,0-.92-2.31,12.35,12.35,0,0,0-1.48-2,11.44,11.44,0,0,0-1.8-1.45,9.13,9.13,0,0,0-1.79-.83,10.75,10.75,0,0,0-1.29-.36l-.48-.09s-.12.14-.3.38-.48.56-.74.91a13.74,13.74,0,0,1-1,1.15l-1.19,1.23c-.42.41-.82.83-1.18,1.21a9.77,9.77,0,0,0-1.06,1.27,6.42,6.42,0,0,0-.85,1.34,7.27,7.27,0,0,0-.55,1.48,9.12,9.12,0,0,0-.32,3.3,13.67,13.67,0,0,0,.78,3.53A11.08,11.08,0,0,0,394.74,230Z"/></g><g id="_Grupo_14" data-name="&lt;Grupo&gt;"><path class="cls-16" d="M412.3,244.16c.16.36.34.71.49,1a5,5,0,0,0,.25.46c1.72-2.55,4.32-6.76,4-8.35,0,0,.92,3.11-3.07,8.77a4.15,4.15,0,0,0,.58-.1,10.26,10.26,0,0,0,1.27-.32,12.12,12.12,0,0,0,1.42-.55,8.87,8.87,0,0,0,2.64-1.9,6.9,6.9,0,0,0,1.66-2.85,7.57,7.57,0,0,0,.26-1.66,7,7,0,0,0-.19-1.7,7.14,7.14,0,0,0-.63-1.58,8.75,8.75,0,0,0-1-1.37,9,9,0,0,0-1.25-1,7,7,0,0,0-1.22-.57,7.8,7.8,0,0,0-.89-.24l-.34-.06-.21.25c-.1.15-.32.4-.5.64s-.43.5-.7.79-.53.53-.82.84-.58.58-.82.85a7.14,7.14,0,0,0-.74.87,5.12,5.12,0,0,0-.58.93,5.86,5.86,0,0,0-.39,1,6.1,6.1,0,0,0-.2,2.28,8.55,8.55,0,0,0,.53,2.44A9,9,0,0,0,412.3,244.16Z"/></g><g id="_Grupo_15" data-name="&lt;Grupo&gt;"><path class="cls-17" d="M490.18,280.08c-.25-.2-.51-.43-.81-.72s-.54-.51-.87-.81-.58-.58-.85-.82a10,10,0,0,0-.91-.75,6.62,6.62,0,0,0-1-.64,7.24,7.24,0,0,0-1.13-.48,10,10,0,0,0-2.68-.57,14.24,14.24,0,0,0-3,0c-.48,0-1,.11-1.42.17s-.9.16-1.25.23-.41.08-.59.13c2.74,1.85,7.28,4.71,9.22,4.76,0,0-3.87.21-9.87-4a1.4,1.4,0,0,0,0,.5,5.22,5.22,0,0,0,.16,1.09,6.21,6.21,0,0,0,.4,1.25,7.37,7.37,0,0,0,1.8,2.48,8.82,8.82,0,0,0,3.1,1.85,12.2,12.2,0,0,0,1.91.51,12.92,12.92,0,0,0,2.05.14,12.55,12.55,0,0,0,2-.26,10.42,10.42,0,0,0,1.79-.6,9.05,9.05,0,0,0,1.41-.84,5.29,5.29,0,0,0,.88-.91,4.54,4.54,0,0,0,.45-.69,1.68,1.68,0,0,0,.13-.26l-.26-.21A8.43,8.43,0,0,1,490.18,280.08Z"/></g><g id="_Grupo_16" data-name="&lt;Grupo&gt;"><path class="cls-18" d="M443.18,233.65a6.27,6.27,0,0,0-1,1.06,7.77,7.77,0,0,0-.7,1.35,6.29,6.29,0,0,0-.3,1.53,6.16,6.16,0,0,0,.12,1.54,6.78,6.78,0,0,0,.53,1.47,6.85,6.85,0,0,0,2,2.39,8.8,8.8,0,0,0,2.73,1.42,11.13,11.13,0,0,0,1.39.33,11.85,11.85,0,0,0,1.19.14,5.15,5.15,0,0,0,.54,0c-4.6-4.65-4.3-7.6-4.3-7.6,0,1.47,3.11,5,5.12,7.09,0-.13.1-.28.15-.43s.19-.61.28-1a9,9,0,0,0,.21-1.08,8,8,0,0,0,.06-2.28,5.62,5.62,0,0,0-.58-2,5.55,5.55,0,0,0-.53-.88,4.9,4.9,0,0,0-.69-.77,7.17,7.17,0,0,0-.81-.7q-.41-.33-.9-.66c-.31-.26-.62-.48-.88-.67s-.56-.44-.79-.64-.44-.38-.56-.51l-.24-.2-.29.09a6.15,6.15,0,0,0-.77.34A4.62,4.62,0,0,0,443.18,233.65Z"/></g><g id="_Grupo_17" data-name="&lt;Grupo&gt;"><path class="cls-19" d="M395.37,257a6.73,6.73,0,0,0,.56,1.29,6.53,6.53,0,0,0,.93,1.17,6.14,6.14,0,0,0,1.23.89,5.89,5.89,0,0,0,1.44.52,6.46,6.46,0,0,0,1.52.13,7.1,7.1,0,0,0,2.95-.8,8.76,8.76,0,0,0,2.37-1.87,11.79,11.79,0,0,0,.86-1.1,10.68,10.68,0,0,0,.6-1,3,3,0,0,0,.24-.47c-6,2.22-8.53.76-8.53.76,1.31.58,5.71-.76,8.41-1.69-.09-.1-.21-.21-.33-.32s-.46-.41-.73-.63a8.61,8.61,0,0,0-.88-.63,7.79,7.79,0,0,0-2-1,5.77,5.77,0,0,0-2.06-.31,6.36,6.36,0,0,0-1,.12,4.74,4.74,0,0,0-1,.31,6.53,6.53,0,0,0-1,.43,9.52,9.52,0,0,0-1,.54c-.35.17-.68.36-.95.51s-.62.32-.9.45-.52.23-.68.3a2,2,0,0,0-.28.13l0,.3a5.09,5.09,0,0,0,0,.82A5.16,5.16,0,0,0,395.37,257Z"/></g><g id="_Grupo_18" data-name="&lt;Grupo&gt;"><path class="cls-20" d="M393.44,237.05c-.26,0-.55-.08-.88-.11-.51-.05-1.17-.13-1.84-.16s-1.38-.07-2.08-.06a23.24,23.24,0,0,0-4.3.38,14.58,14.58,0,0,0-3.73,1.18,10,10,0,0,0-1.55.87,7.81,7.81,0,0,0-1.32,1,8.75,8.75,0,0,0-1.16,1.19c-.35.39-.71.84-1.08,1.29L374.42,244a13.63,13.63,0,0,1-1,1.14c-.32.31-.63.66-.84.84s-.35.36-.35.36l.23.36a10.47,10.47,0,0,0,.79.93,7.33,7.33,0,0,0,1.46,1.18,11.67,11.67,0,0,0,2.18,1,17,17,0,0,0,2.7.63,18.91,18.91,0,0,0,2.94.09,17.32,17.32,0,0,0,2.91-.48,14.91,14.91,0,0,0,2.65-1,12.46,12.46,0,0,0,4.11-3.06,10.43,10.43,0,0,0,2.11-3.83,10,10,0,0,0,.33-1.86,7.75,7.75,0,0,0,0-1.59,5.09,5.09,0,0,0-.06-.71c-7.84,6.92-13.46,7.13-13.46,7.13C383.87,244.81,389.84,240.08,393.44,237.05Z"/></g><g id="_Grupo_19" data-name="&lt;Grupo&gt;"><path class="cls-21" d="M379.39,265.53a4.3,4.3,0,0,0-.21-.69c-6.44,7.85-11.94,8.78-11.94,8.78,2.68-.67,7.7-6.12,10.67-9.58a8.76,8.76,0,0,0-.88,0c-.52,0-1.2,0-1.85.08s-1.38.1-2.07.21a22.14,22.14,0,0,0-4.18.92,14.14,14.14,0,0,0-3.47,1.65A11.42,11.42,0,0,0,364.1,268a7.42,7.42,0,0,0-1.11,1.2,10.87,10.87,0,0,0-.93,1.34c-.27.43-.54.92-.81,1.42s-.59,1-.81,1.41-.57.91-.83,1.27-.49.73-.68.94l-.27.38s.11.14.3.34a10.89,10.89,0,0,0,.94.81,9,9,0,0,0,1.68,1,13.9,13.9,0,0,0,2.35.74,17.77,17.77,0,0,0,2.78.26,17.49,17.49,0,0,0,2.91-.29,16.07,16.07,0,0,0,2.79-.86,14.23,14.23,0,0,0,2.44-1.31,11.56,11.56,0,0,0,3.49-3.56A9.91,9.91,0,0,0,379.7,269a11.44,11.44,0,0,0,0-1.86A9.5,9.5,0,0,0,379.39,265.53Z"/></g><g id="_Grupo_20" data-name="&lt;Grupo&gt;"><path class="cls-22" d="M432.39,171.93a19.39,19.39,0,0,0-3.32-1,12.74,12.74,0,0,0-2.85-.23,10.79,10.79,0,0,0-1.87.14c-.42.06-.68.12-.68.12s0,.21-.1.6-.19.94-.27,1.49a17.64,17.64,0,0,1-.43,1.95c-.19.62-.38,1.33-.59,2.1s-.45,1.44-.61,2.11a11.85,11.85,0,0,0-.41,2.09,9.18,9.18,0,0,0-.07,2.09,12.27,12.27,0,0,0,.36,2.14,15,15,0,0,0,2,4.33,24.14,24.14,0,0,0,3.58,4.14c.64.63,1.37,1.24,2,1.78s1.38,1.05,1.93,1.47a7.51,7.51,0,0,0,1,.66c.4-5.86.68-15.35-1.51-18.08,0,0,5,5.13,3.73,18.21.29-.16.64-.35,1-.57a17.63,17.63,0,0,0,2-1.44,18.2,18.2,0,0,0,2-1.95,13.71,13.71,0,0,0,2.8-5.28,12.36,12.36,0,0,0,0-6.36,14.13,14.13,0,0,0-1.28-3.22,16.45,16.45,0,0,0-2.11-3,20.48,20.48,0,0,0-2.87-2.51A22.72,22.72,0,0,0,432.39,171.93Z"/></g><g id="_Grupo_21" data-name="&lt;Grupo&gt;"><path class="cls-23" d="M439.32,424.81l3-96.54c0-2-5.17-3.65-7.6-3.65h-4a12.94,12.94,0,0,0-6.74,2.22,2,2,0,0,0-.86,1.43l3,96.9a21.13,21.13,0,0,0-6.3,2.95,20.2,20.2,0,0,0-8.56,17c0,23.79.59,28.55,10.51,29.48l.7-27.5a2.25,2.25,0,0,1,.84-1.71,2.76,2.76,0,0,1,1.77-.61h.9a2.76,2.76,0,0,1,1.77.62,2.25,2.25,0,0,1,.83,1.73l2.66,27.7h5.91L439.9,447a2.23,2.23,0,0,1,.83-1.63,2.78,2.78,0,0,1,1.77-.61h.9a2.76,2.76,0,0,1,1.77.62,2.29,2.29,0,0,1,.84,1.73l.7,27.36c9-1.17,9-6.42,9-29.37,0-7.63-3.61-14.3-10.06-17.95A22.33,22.33,0,0,0,439.32,424.81Z"/></g></g></svg>