<?xml version="1.0" encoding="utf-8"?>
<!-- Generator: Adobe Illustrator 22.0.0, SVG Export Plug-In . SVG Version: 6.00 Build 0)  -->
<svg version="1.1" id="Camada_1" xmlns="http://www.w3.org/2000/svg" xmlns:xlink="http://www.w3.org/1999/xlink" x="0px" y="0px"
	 viewBox="0 0 500 250" style="enable-background:new 0 0 500 250;" xml:space="preserve">
<style type="text/css">
	.st0{fill:#CACACA;}
	.st1{fill:#20522A;}
	.st2{fill:#828282;}
</style>
<path class="st2" d="M362.2,144v93.5c0,3.4-1.2,6.3-3.7,8.8c-2.5,2.5-5.4,3.7-8.8,3.7h-74.8v-74.8h-49.9V250h-74.8
	c-3.4,0-6.3-1.2-8.8-3.7c-2.5-2.5-3.7-5.4-3.7-8.8V144c0-0.1,0-0.3,0.1-0.6c0.1-0.3,0.1-0.5,0.1-0.6l112-92.4l112,92.4
	C362.2,143.1,362.2,143.5,362.2,144z M405.7,130.6L393.6,145c-1,1.2-2.4,1.9-4.1,2.1h-0.6c-1.7,0-3.1-0.5-4.1-1.4L250,33.3
	L115.2,145.8c-1.6,1-3.1,1.5-4.7,1.4c-1.7-0.3-3.1-1-4.1-2.1l-12.1-14.4c-1-1.3-1.5-2.8-1.4-4.6c0.1-1.8,0.8-3.2,2.1-4.2L235.2,5.1
	C239.3,1.7,244.3,0,250,0c5.7,0,10.7,1.7,14.8,5.1l47.5,39.8v-38c0-1.8,0.6-3.3,1.8-4.5c1.2-1.2,2.7-1.8,4.5-1.8H356
	c1.8,0,3.3,0.6,4.5,1.8s1.8,2.7,1.8,4.5v79.5l42.7,35.5c1.3,1,2,2.4,2.1,4.2C407.2,127.7,406.7,129.3,405.7,130.6z"/>
</svg>
