<?xml version="1.0" encoding="utf-8"?>
<!-- Generator: Adobe Illustrator 22.0.0, SVG Export Plug-In . SVG Version: 6.00 Build 0)  -->
<svg version="1.1" id="Camada_1" xmlns="http://www.w3.org/2000/svg" xmlns:xlink="http://www.w3.org/1999/xlink" x="0px" y="0px"
	 viewBox="0 0 70.9 40" style="enable-background:new 0 0 70.9 40;" xml:space="preserve">
<style type="text/css">
	.st0{fill:#593230;}
	.st1{fill:#80B03E;}
	.st2{fill:url(#SVGID_1_);}
	.st3{fill:url(#SVGID_2_);}
	.st4{fill:url(#SVGID_3_);}
	.st5{fill:url(#SVGID_4_);}
	.st6{fill:url(#SVGID_5_);}
	.st7{fill:url(#SVGID_6_);}
	.st8{fill:url(#SVGID_7_);}
	.st9{fill:url(#SVGID_8_);}
	.st10{fill:url(#SVGID_9_);}
	.st11{fill:url(#SVGID_10_);}
	.st12{fill:url(#SVGID_11_);}
	.st13{fill:url(#SVGID_12_);}
	.st14{fill:url(#SVGID_13_);}
	.st15{fill:url(#SVGID_14_);}
	.st16{fill:url(#SVGID_15_);}
	.st17{fill:url(#SVGID_16_);}
	.st18{fill:url(#SVGID_17_);}
	.st19{fill:url(#SVGID_18_);}
</style>
<g id="XMLID_1_">
	<g id="XMLID_217_">
		<path id="XMLID_231_" class="st0" d="M0.6,19.6v-7.5H1L12,23.9l0.1,0.1c0-0.5,0.1-1.4,0.1-2.5v-7.2l-0.1-1.8l0-0.2
			c0.4,0,0.7,0.1,1,0.1c0.1,0,0.3,0,0.6-0.1c0,0.1,0,0.1,0,0.3c0,0.1,0,0.2,0,0.3l-0.1,2.2l-0.2,5.3l-0.1,5l0.1,2.5h-0.3
			c-0.6-0.7-1-1.2-1.4-1.6l-3.6-4.1l-6.2-6.7l0,2.1v3.3V23l0,2.7l0.1,2.1c-0.2,0-0.4-0.1-0.8-0.1c-0.4,0-0.6,0-0.8,0.1
			c0.1-1.3,0.1-2.3,0.2-3L0.6,19.6z"/>
		<path id="XMLID_229_" class="st0" d="M22.5,18.6l0-1.3v-0.2c0.2,0,0.5,0.1,0.9,0.1c0.4,0,0.7,0,0.9-0.1c-0.1,1.2-0.1,2-0.1,2.6
			c0,0.9,0,2.3,0,4c0,0.3,0,0.7,0,1.2c0,0.6,0,1,0,1.2c0,0.7,0,1.2,0,1.5c-0.5,0-0.8-0.1-0.9-0.1c-0.4,0-0.7,0-0.9,0.1v-0.5l0-1.3
			v-0.2c-0.8,1.4-2,2.1-3.6,2.1c-1.2,0-2.1-0.4-2.8-1.1c-0.3-0.4-0.5-0.8-0.6-1.3c-0.1-0.5-0.1-1.1-0.1-1.9l0.1-3.2l-0.1-2.2v-0.8
			v-0.2c0.3,0,0.6,0.1,1,0.1c0.4,0,0.7,0,0.9-0.1c-0.1,0.6-0.1,1.1-0.1,1.7C17.1,20.6,17,22,17,23.1c0,1.1,0.1,1.9,0.4,2.4
			c0.4,0.9,1.2,1.4,2.3,1.4c0.7,0,1.3-0.2,1.7-0.7c0.5-0.4,0.8-1,0.9-1.8c0.1-0.5,0.1-1.2,0.1-2.1V18.6z"/>
		<path id="XMLID_227_" class="st0" d="M29.5,14.1c0,0.3,0,0.4,0,0.6l-0.1,2.7l2.4,0v0.9l-2.4-0.1c0,0.1-0.1,0.3-0.1,0.5l0,4.9v0.9
			c0,0.8,0.1,1.5,0.3,2c0.2,0.5,0.7,0.8,1.4,0.8c0.1,0,0.3,0,0.5-0.1c0.2,0,0.4-0.1,0.5-0.1v0.6c-0.6,0.2-1.2,0.3-1.9,0.3
			c-0.1,0-0.2,0-0.3,0c-0.1,0-0.2,0-0.3-0.1c-0.1,0-0.2,0-0.4-0.1c-0.3-0.1-0.6-0.2-0.9-0.5c-0.3-0.3-0.5-0.6-0.6-1
			c-0.1-0.4-0.1-1-0.1-1.8l0.1-3.9v-1.9v-0.5l-1.5,0.1V18v-0.6l1.5,0.1c0-0.3,0-0.7,0-1.3c0-0.6,0-1,0-1.2L29.5,14.1z"/>
		<path id="XMLID_225_" class="st0" d="M34,24.9l-0.1-7.5v-0.2l0.5,0.1c0.6,0,1,0,1.3-0.1l-0.1,1.5v0.5l0,0.1l0.2-0.3
			c0.4-0.6,0.8-1.2,1.3-1.5c0.5-0.4,1.1-0.6,1.9-0.6c0.1,0,0.2,0.1,0.2,0.1l-0.1,0.6v0.5l0,0.5v0.3L39,19c0,0,0,0-0.1-0.1
			c-0.1,0-0.1-0.1-0.1-0.1c-0.2-0.1-0.5-0.2-0.8-0.2c-0.6,0-1.1,0.2-1.4,0.6c-0.3,0.3-0.5,0.6-0.6,0.9c-0.2,0.5-0.3,1.4-0.3,2.6v2.8
			l0.1,2.2v0.2c-0.2,0-0.5-0.1-0.9-0.1c-0.2,0-0.5,0-0.8,0.1v-0.6L34,24.9z"/>
		<path id="XMLID_223_" class="st0" d="M45,24.9l-0.1-7.5v-0.2l0.5,0.1c0.6,0,1.1,0,1.4-0.1l-0.1,1.5v0.5l0,0.1l0.2-0.3
			c0.4-0.6,0.9-1.2,1.4-1.5c0.5-0.4,1.2-0.6,2-0.6c0.1,0,0.2,0.1,0.3,0.1l-0.1,0.6v0.5l0,0.5v0.3L50.2,19c0,0,0,0-0.1-0.1
			c-0.1,0-0.1-0.1-0.2-0.1c-0.2-0.1-0.5-0.2-0.8-0.2c-0.6,0-1.1,0.2-1.5,0.6c-0.3,0.3-0.5,0.6-0.6,0.9c-0.2,0.5-0.3,1.4-0.3,2.6v2.8
			l0.1,2.2v0.2c-0.2,0-0.6-0.1-1-0.1c-0.2,0-0.5,0-0.9,0.1v-0.6L45,24.9z"/>
		<path id="XMLID_221_" class="st0" d="M52.5,25.7c0.3,0.5,0.7,0.9,1.2,1.1c0.5,0.3,1,0.4,1.5,0.4c0.6,0,1.1-0.2,1.6-0.6
			c0.5-0.4,0.7-0.8,0.7-1.4c0-0.7-0.2-1.1-0.6-1.4c-0.4-0.2-1.1-0.5-2.1-0.8c-0.9-0.3-1.6-0.6-1.9-0.8c-0.6-0.6-0.9-1.2-0.9-2
			c0-1.1,0.4-1.9,1.1-2.5c0.7-0.6,1.6-0.9,2.7-0.9c0.8,0,1.7,0.2,2.5,0.5c0,0,0,0,0.1,0c0,0,0.1,0,0.1,0c-0.2,0.5-0.4,1-0.6,1.6
			h-0.2c-0.1-0.4-0.4-0.7-0.8-1c-0.4-0.3-0.8-0.4-1.2-0.4c-0.6,0-1.1,0.2-1.5,0.5c-0.4,0.3-0.6,0.8-0.6,1.3c0,0.6,0.2,1.1,0.6,1.3
			c0.4,0.3,0.9,0.5,1.7,0.7c1.1,0.3,1.8,0.6,2.1,0.7c0.8,0.6,1.2,1.3,1.2,2.2c0,1.2-0.6,2.2-1.9,3c-0.5,0.4-1.3,0.5-2.4,0.5
			c-1.1,0-2.1-0.2-2.9-0.7c0.3-0.9,0.4-1.5,0.5-1.7H52.5z"/>
		<path id="XMLID_218_" class="st0" d="M70.9,22.4l-4.8-0.1l-3.3,0.1c0,1.5,0.4,2.6,1.1,3.5c0.7,0.9,1.7,1.3,3,1.3
			c0.6,0,1.1-0.1,1.8-0.4c0.6-0.3,1.1-0.6,1.5-1c0.1-0.1,0.2-0.1,0.3-0.1l-0.2,1.1c-1.3,0.9-2.6,1.3-4,1.3c-0.2,0-0.8-0.1-1.7-0.2
			c-0.6-0.1-1.2-0.4-1.7-0.8c-0.5-0.4-1-0.8-1.3-1.4c-0.6-0.8-0.8-1.9-0.8-3.2c0-0.7,0.1-1.5,0.4-2.2c0.3-0.8,0.6-1.4,1.1-1.9
			c1-1,2.3-1.5,3.9-1.5c1.5,0,2.7,0.4,3.5,1.2c0.8,0.8,1.3,1.9,1.3,3.4L70.9,22.4z M66.1,17.7c-1,0-1.8,0.4-2.3,1.1
			c-0.5,0.8-0.9,1.7-1,2.7c0.3,0,0.9,0,1.5,0c0.7,0,1.2,0,1.5,0c0.4,0,0.9,0,1.6,0c0.7,0,1.2,0,1.6,0C69,19,68,17.7,66.1,17.7z"/>
	</g>
	<g id="XMLID_43_">
		<path id="XMLID_215_" class="st0" d="M6.5,38l0.2-0.1c0.2,0.3,0.4,0.5,0.6,0.5c0.1,0,0.2,0,0.3-0.1c0.1,0,0.2-0.1,0.2-0.2
			c0-0.1,0.1-0.2,0.1-0.2c0-0.1,0-0.2-0.1-0.3c-0.1-0.1-0.3-0.3-0.5-0.5c-0.2-0.2-0.4-0.3-0.5-0.4c-0.1-0.1-0.2-0.3-0.2-0.4
			c0-0.1,0-0.2,0.1-0.3c0.1-0.1,0.1-0.2,0.3-0.2c0.1-0.1,0.2-0.1,0.4-0.1c0.1,0,0.3,0,0.4,0.1C7.9,35.7,8,35.8,8.2,36l-0.2,0.2
			C7.8,36,7.7,36,7.6,35.9c-0.1,0-0.2-0.1-0.3-0.1c-0.1,0-0.2,0-0.3,0.1C7,36,7,36.1,7,36.2c0,0.1,0,0.1,0,0.2
			c0,0.1,0.1,0.1,0.1,0.2c0,0,0.2,0.1,0.4,0.3c0.3,0.2,0.4,0.4,0.5,0.5c0.1,0.1,0.1,0.3,0.1,0.4c0,0.2-0.1,0.4-0.2,0.6
			c-0.2,0.2-0.4,0.2-0.6,0.2c-0.2,0-0.3,0-0.5-0.1C6.7,38.4,6.6,38.2,6.5,38z"/>
		<path id="XMLID_212_" class="st0" d="M10.9,36.4v2.2h-0.3v-0.4c-0.1,0.1-0.2,0.2-0.4,0.3c-0.1,0.1-0.3,0.1-0.5,0.1
			c-0.3,0-0.6-0.1-0.8-0.3c-0.2-0.2-0.3-0.5-0.3-0.8c0-0.3,0.1-0.6,0.3-0.8c0.2-0.2,0.5-0.3,0.8-0.3c0.2,0,0.3,0,0.5,0.1
			c0.1,0.1,0.3,0.2,0.4,0.3v-0.4H10.9z M9.8,36.6c-0.2,0-0.3,0-0.4,0.1c-0.1,0.1-0.2,0.2-0.3,0.3C9,37.2,9,37.3,9,37.5
			c0,0.2,0,0.3,0.1,0.4c0.1,0.1,0.2,0.2,0.3,0.3c0.1,0.1,0.3,0.1,0.4,0.1c0.2,0,0.3,0,0.4-0.1c0.1-0.1,0.2-0.2,0.3-0.3
			c0.1-0.1,0.1-0.3,0.1-0.4c0-0.3-0.1-0.5-0.2-0.6C10.3,36.7,10.1,36.6,9.8,36.6z"/>
		<path id="XMLID_209_" class="st0" d="M11.5,36.4h0.3v1c0,0.2,0,0.4,0,0.5c0,0.1,0.1,0.2,0.2,0.3c0.1,0.1,0.2,0.1,0.4,0.1
			c0.2,0,0.3,0,0.4-0.1c0.1-0.1,0.2-0.2,0.2-0.3c0-0.1,0-0.3,0-0.5v-1h0.3v1.1c0,0.3,0,0.5-0.1,0.7c-0.1,0.2-0.2,0.3-0.3,0.4
			c-0.1,0.1-0.3,0.1-0.5,0.1c-0.2,0-0.4,0-0.5-0.1c-0.1-0.1-0.2-0.2-0.3-0.4c-0.1-0.2-0.1-0.4-0.1-0.7V36.4z M12.6,35.4h0.4L12.5,36
			h-0.3L12.6,35.4z"/>
		<path id="XMLID_206_" class="st0" d="M16.2,35.5v3h-0.3v-0.4c-0.1,0.1-0.2,0.2-0.4,0.3c-0.1,0.1-0.3,0.1-0.5,0.1
			c-0.3,0-0.6-0.1-0.8-0.3c-0.2-0.2-0.3-0.5-0.3-0.8c0-0.3,0.1-0.6,0.3-0.8c0.2-0.2,0.5-0.3,0.8-0.3c0.2,0,0.3,0,0.5,0.1
			c0.1,0.1,0.3,0.2,0.4,0.3v-1.2H16.2z M15.1,36.6c-0.2,0-0.3,0-0.4,0.1c-0.1,0.1-0.2,0.2-0.3,0.3c-0.1,0.1-0.1,0.3-0.1,0.4
			c0,0.2,0,0.3,0.1,0.4c0.1,0.1,0.2,0.2,0.3,0.3c0.1,0.1,0.3,0.1,0.4,0.1c0.2,0,0.3,0,0.4-0.1c0.1-0.1,0.2-0.2,0.3-0.3
			c0.1-0.1,0.1-0.3,0.1-0.4c0-0.3-0.1-0.5-0.2-0.6C15.5,36.7,15.3,36.6,15.1,36.6z"/>
		<path id="XMLID_203_" class="st0" d="M18.7,37.8l0.2,0.1c-0.1,0.2-0.2,0.3-0.3,0.4c-0.1,0.1-0.2,0.2-0.3,0.2
			c-0.1,0-0.3,0.1-0.4,0.1c-0.4,0-0.6-0.1-0.8-0.3c-0.2-0.2-0.3-0.5-0.3-0.8c0-0.3,0.1-0.5,0.3-0.7c0.2-0.3,0.5-0.4,0.9-0.4
			c0.4,0,0.7,0.1,0.9,0.4c0.2,0.2,0.2,0.4,0.2,0.7h-2c0,0.3,0.1,0.5,0.2,0.6c0.2,0.2,0.3,0.2,0.6,0.2c0.1,0,0.2,0,0.3-0.1
			c0.1,0,0.2-0.1,0.3-0.2C18.5,38.1,18.6,38,18.7,37.8z M18.7,37.2c0-0.1-0.1-0.3-0.2-0.4c-0.1-0.1-0.2-0.2-0.3-0.2
			c-0.1-0.1-0.2-0.1-0.4-0.1c-0.2,0-0.4,0.1-0.5,0.2c-0.1,0.1-0.2,0.2-0.3,0.4H18.7z"/>
		<path id="XMLID_201_" class="st0" d="M22.7,36.8L22.5,37c-0.2-0.3-0.5-0.4-0.8-0.4c-0.3,0-0.5,0.1-0.7,0.3
			c-0.2,0.2-0.3,0.4-0.3,0.6c0,0.2,0,0.3,0.1,0.4c0.1,0.1,0.2,0.2,0.3,0.3c0.1,0.1,0.3,0.1,0.5,0.1c0.3,0,0.6-0.1,0.8-0.4l0.2,0.1
			c-0.1,0.2-0.2,0.3-0.4,0.4c-0.2,0.1-0.4,0.1-0.6,0.1c-0.3,0-0.6-0.1-0.9-0.3c-0.2-0.2-0.3-0.5-0.3-0.8c0-0.2,0.1-0.4,0.2-0.6
			c0.1-0.2,0.3-0.3,0.4-0.4c0.2-0.1,0.4-0.2,0.6-0.2c0.1,0,0.3,0,0.4,0.1c0.1,0,0.2,0.1,0.3,0.2C22.6,36.6,22.7,36.7,22.7,36.8z"/>
		<path id="XMLID_198_" class="st0" d="M24.3,36.3c0.3,0,0.6,0.1,0.8,0.4c0.2,0.2,0.3,0.5,0.3,0.8c0,0.3-0.1,0.6-0.3,0.8
			c-0.2,0.2-0.5,0.3-0.8,0.3c-0.3,0-0.6-0.1-0.8-0.3c-0.2-0.2-0.3-0.5-0.3-0.8c0-0.3,0.1-0.6,0.3-0.8C23.7,36.4,23.9,36.3,24.3,36.3
			z M24.3,36.6c-0.2,0-0.4,0.1-0.6,0.3c-0.2,0.2-0.2,0.4-0.2,0.6c0,0.2,0,0.3,0.1,0.4c0.1,0.1,0.2,0.2,0.3,0.3
			c0.1,0.1,0.3,0.1,0.4,0.1c0.2,0,0.3,0,0.4-0.1c0.1-0.1,0.2-0.2,0.3-0.3c0.1-0.1,0.1-0.3,0.1-0.4c0-0.2-0.1-0.5-0.3-0.6
			C24.7,36.7,24.5,36.6,24.3,36.6z"/>
		<path id="XMLID_196_" class="st0" d="M25.9,36.4h0.3v0.4c0.1-0.1,0.2-0.2,0.3-0.3c0.1-0.1,0.3-0.1,0.4-0.1c0.1,0,0.2,0,0.3,0.1
			c0.1,0,0.2,0.1,0.2,0.2c0.1,0.1,0.1,0.2,0.2,0.3c0.1-0.2,0.2-0.3,0.3-0.4c0.1-0.1,0.3-0.1,0.4-0.1c0.1,0,0.3,0,0.4,0.1
			c0.1,0.1,0.2,0.2,0.3,0.3c0.1,0.1,0.1,0.3,0.1,0.6v1.2h-0.3v-1.2c0-0.2,0-0.4,0-0.5c0-0.1-0.1-0.2-0.2-0.2
			c-0.1-0.1-0.2-0.1-0.3-0.1c-0.1,0-0.3,0-0.4,0.1c-0.1,0.1-0.2,0.2-0.2,0.3c-0.1,0.1-0.1,0.4-0.1,0.7v0.8h-0.3v-1.1
			c0-0.3,0-0.4,0-0.5s-0.1-0.2-0.2-0.2c-0.1-0.1-0.2-0.1-0.3-0.1c-0.1,0-0.2,0-0.4,0.1c-0.1,0.1-0.2,0.2-0.2,0.3
			c-0.1,0.1-0.1,0.3-0.1,0.6v0.9h-0.3V36.4z"/>
		<path id="XMLID_194_" class="st0" d="M33,36.8L32.8,37c-0.2-0.3-0.5-0.4-0.8-0.4c-0.3,0-0.5,0.1-0.7,0.3c-0.2,0.2-0.3,0.4-0.3,0.6
			c0,0.2,0,0.3,0.1,0.4c0.1,0.1,0.2,0.2,0.3,0.3c0.1,0.1,0.3,0.1,0.5,0.1c0.3,0,0.6-0.1,0.8-0.4l0.2,0.1c-0.1,0.2-0.2,0.3-0.4,0.4
			c-0.2,0.1-0.4,0.1-0.6,0.1c-0.3,0-0.6-0.1-0.9-0.3c-0.2-0.2-0.3-0.5-0.3-0.8c0-0.2,0.1-0.4,0.2-0.6c0.1-0.2,0.3-0.3,0.4-0.4
			c0.2-0.1,0.4-0.2,0.6-0.2c0.1,0,0.3,0,0.4,0.1c0.1,0,0.2,0.1,0.3,0.2C32.8,36.6,32.9,36.7,33,36.8z"/>
		<path id="XMLID_191_" class="st0" d="M34.6,36.3c0.3,0,0.6,0.1,0.8,0.4c0.2,0.2,0.3,0.5,0.3,0.8c0,0.3-0.1,0.6-0.3,0.8
			c-0.2,0.2-0.5,0.3-0.8,0.3c-0.3,0-0.6-0.1-0.8-0.3c-0.2-0.2-0.3-0.5-0.3-0.8c0-0.3,0.1-0.6,0.3-0.8C33.9,36.4,34.2,36.3,34.6,36.3
			z M34.6,36.6c-0.2,0-0.4,0.1-0.6,0.3c-0.2,0.2-0.2,0.4-0.2,0.6c0,0.2,0,0.3,0.1,0.4c0.1,0.1,0.2,0.2,0.3,0.3
			c0.1,0.1,0.3,0.1,0.4,0.1c0.2,0,0.3,0,0.4-0.1c0.1-0.1,0.2-0.2,0.3-0.3c0.1-0.1,0.1-0.3,0.1-0.4c0-0.2-0.1-0.5-0.3-0.6
			C35,36.7,34.8,36.6,34.6,36.6z"/>
		<path id="XMLID_189_" class="st0" d="M36.2,36.4h0.3v0.4c0.1-0.1,0.2-0.2,0.3-0.3c0.1-0.1,0.3-0.1,0.4-0.1c0.1,0,0.2,0,0.3,0.1
			c0.1,0,0.2,0.1,0.2,0.2c0.1,0.1,0.1,0.2,0.2,0.3c0.1-0.2,0.2-0.3,0.3-0.4c0.1-0.1,0.3-0.1,0.4-0.1c0.1,0,0.3,0,0.4,0.1
			c0.1,0.1,0.2,0.2,0.3,0.3c0.1,0.1,0.1,0.3,0.1,0.6v1.2h-0.3v-1.2c0-0.2,0-0.4,0-0.5c0-0.1-0.1-0.2-0.2-0.2
			c-0.1-0.1-0.2-0.1-0.3-0.1c-0.1,0-0.3,0-0.4,0.1c-0.1,0.1-0.2,0.2-0.2,0.3C38,37.2,38,37.4,38,37.7v0.8h-0.3v-1.1
			c0-0.3,0-0.4,0-0.5c0-0.1-0.1-0.2-0.2-0.2c-0.1-0.1-0.2-0.1-0.3-0.1c-0.1,0-0.2,0-0.4,0.1c-0.1,0.1-0.2,0.2-0.2,0.3
			c-0.1,0.1-0.1,0.3-0.1,0.6v0.9h-0.3V36.4z"/>
		<path id="XMLID_75_" class="st0" d="M40.1,35.5c0.1,0,0.1,0,0.2,0.1c0,0,0.1,0.1,0.1,0.2c0,0.1,0,0.1-0.1,0.2c0,0-0.1,0.1-0.2,0.1
			c-0.1,0-0.1,0-0.2-0.1c0,0-0.1-0.1-0.1-0.2c0-0.1,0-0.1,0.1-0.2S40.1,35.5,40.1,35.5z M40,36.4h0.3v2.2H40V36.4z"/>
		<path id="XMLID_72_" class="st0" d="M43,35.5v3h-0.3v-0.4c-0.1,0.1-0.2,0.2-0.4,0.3c-0.1,0.1-0.3,0.1-0.5,0.1
			c-0.3,0-0.6-0.1-0.8-0.3c-0.2-0.2-0.3-0.5-0.3-0.8c0-0.3,0.1-0.6,0.3-0.8c0.2-0.2,0.5-0.3,0.8-0.3c0.2,0,0.3,0,0.5,0.1
			c0.1,0.1,0.3,0.2,0.4,0.3v-1.2H43z M41.9,36.6c-0.2,0-0.3,0-0.4,0.1c-0.1,0.1-0.2,0.2-0.3,0.3c-0.1,0.1-0.1,0.3-0.1,0.4
			c0,0.2,0,0.3,0.1,0.4c0.1,0.1,0.2,0.2,0.3,0.3c0.1,0.1,0.3,0.1,0.4,0.1c0.2,0,0.3,0,0.4-0.1c0.1-0.1,0.2-0.2,0.3-0.3
			c0.1-0.1,0.1-0.3,0.1-0.4c0-0.3-0.1-0.5-0.2-0.6C42.3,36.7,42.1,36.6,41.9,36.6z"/>
		<path id="XMLID_69_" class="st0" d="M45.8,36.4v2.2h-0.3v-0.4c-0.1,0.1-0.2,0.2-0.4,0.3c-0.1,0.1-0.3,0.1-0.5,0.1
			c-0.3,0-0.6-0.1-0.8-0.3c-0.2-0.2-0.3-0.5-0.3-0.8c0-0.3,0.1-0.6,0.3-0.8c0.2-0.2,0.5-0.3,0.8-0.3c0.2,0,0.3,0,0.5,0.1
			c0.1,0.1,0.3,0.2,0.4,0.3v-0.4H45.8z M44.7,36.6c-0.2,0-0.3,0-0.4,0.1c-0.1,0.1-0.2,0.2-0.3,0.3c-0.1,0.1-0.1,0.3-0.1,0.4
			c0,0.2,0,0.3,0.1,0.4c0.1,0.1,0.2,0.2,0.3,0.3c0.1,0.1,0.3,0.1,0.4,0.1c0.2,0,0.3,0,0.4-0.1c0.1-0.1,0.2-0.2,0.3-0.3
			c0.1-0.1,0.1-0.3,0.1-0.4c0-0.3-0.1-0.5-0.2-0.6C45.1,36.7,44.9,36.6,44.7,36.6z"/>
		<path id="XMLID_66_" class="st0" d="M49.7,35.5v3h-0.3v-0.4c-0.1,0.1-0.2,0.2-0.4,0.3c-0.1,0.1-0.3,0.1-0.5,0.1
			c-0.3,0-0.6-0.1-0.8-0.3c-0.2-0.2-0.3-0.5-0.3-0.8c0-0.3,0.1-0.6,0.3-0.8c0.2-0.2,0.5-0.3,0.8-0.3c0.2,0,0.3,0,0.5,0.1
			c0.1,0.1,0.3,0.2,0.4,0.3v-1.2H49.7z M48.6,36.6c-0.2,0-0.3,0-0.4,0.1c-0.1,0.1-0.2,0.2-0.3,0.3c-0.1,0.1-0.1,0.3-0.1,0.4
			c0,0.2,0,0.3,0.1,0.4c0.1,0.1,0.2,0.2,0.3,0.3c0.1,0.1,0.3,0.1,0.4,0.1c0.2,0,0.3,0,0.4-0.1c0.1-0.1,0.2-0.2,0.3-0.3
			c0.1-0.1,0.1-0.3,0.1-0.4c0-0.3-0.1-0.5-0.2-0.6C49,36.7,48.8,36.6,48.6,36.6z"/>
		<path id="XMLID_63_" class="st0" d="M52.2,37.8l0.2,0.1c-0.1,0.2-0.2,0.3-0.3,0.4c-0.1,0.1-0.2,0.2-0.3,0.2
			c-0.1,0-0.3,0.1-0.4,0.1c-0.4,0-0.6-0.1-0.8-0.3c-0.2-0.2-0.3-0.5-0.3-0.8c0-0.3,0.1-0.5,0.3-0.7c0.2-0.3,0.5-0.4,0.9-0.4
			c0.4,0,0.7,0.1,0.9,0.4c0.2,0.2,0.2,0.4,0.2,0.7h-2c0,0.3,0.1,0.5,0.2,0.6c0.2,0.2,0.3,0.2,0.6,0.2c0.1,0,0.2,0,0.3-0.1
			c0.1,0,0.2-0.1,0.3-0.2S52.1,38,52.2,37.8z M52.2,37.2c0-0.1-0.1-0.3-0.2-0.4c-0.1-0.1-0.2-0.2-0.3-0.2c-0.1-0.1-0.2-0.1-0.4-0.1
			c-0.2,0-0.4,0.1-0.5,0.2c-0.1,0.1-0.2,0.2-0.3,0.4H52.2z"/>
		<path id="XMLID_61_" class="st0" d="M53.9,36.4h0.3l0.7,1.6l0.7-1.6H56l-1,2.2h-0.1L53.9,36.4z"/>
		<path id="XMLID_58_" class="st0" d="M58.2,37.8l0.2,0.1c-0.1,0.2-0.2,0.3-0.3,0.4c-0.1,0.1-0.2,0.2-0.3,0.2
			c-0.1,0-0.3,0.1-0.4,0.1c-0.4,0-0.6-0.1-0.8-0.3c-0.2-0.2-0.3-0.5-0.3-0.8c0-0.3,0.1-0.5,0.3-0.7c0.2-0.3,0.5-0.4,0.9-0.4
			c0.4,0,0.7,0.1,0.9,0.4c0.2,0.2,0.2,0.4,0.2,0.7h-2c0,0.3,0.1,0.5,0.2,0.6c0.2,0.2,0.3,0.2,0.6,0.2c0.1,0,0.2,0,0.3-0.1
			c0.1,0,0.2-0.1,0.3-0.2S58.1,38,58.2,37.8z M58.2,37.2c0-0.1-0.1-0.3-0.2-0.4c-0.1-0.1-0.2-0.2-0.3-0.2c-0.1-0.1-0.2-0.1-0.4-0.1
			c-0.2,0-0.4,0.1-0.5,0.2c-0.1,0.1-0.2,0.2-0.3,0.4H58.2z"/>
		<path id="XMLID_56_" class="st0" d="M58.9,36.4h0.3v0.3c0.1-0.1,0.2-0.2,0.3-0.3c0.1-0.1,0.2-0.1,0.3-0.1c0.1,0,0.2,0,0.2,0.1
			l-0.1,0.2c-0.1,0-0.1,0-0.1,0c-0.1,0-0.2,0-0.3,0.1c-0.1,0.1-0.2,0.2-0.2,0.4c0,0.1-0.1,0.4-0.1,0.7v0.7h-0.3V36.4z"/>
		<path id="XMLID_53_" class="st0" d="M62.4,35.5v3h-0.3v-0.4c-0.1,0.1-0.2,0.2-0.4,0.3c-0.1,0.1-0.3,0.1-0.5,0.1
			c-0.3,0-0.6-0.1-0.8-0.3c-0.2-0.2-0.3-0.5-0.3-0.8c0-0.3,0.1-0.6,0.3-0.8c0.2-0.2,0.5-0.3,0.8-0.3c0.2,0,0.3,0,0.5,0.1
			c0.1,0.1,0.3,0.2,0.4,0.3v-1.2H62.4z M61.3,36.6c-0.2,0-0.3,0-0.4,0.1c-0.1,0.1-0.2,0.2-0.3,0.3c-0.1,0.1-0.1,0.3-0.1,0.4
			c0,0.2,0,0.3,0.1,0.4c0.1,0.1,0.2,0.2,0.3,0.3c0.1,0.1,0.3,0.1,0.4,0.1c0.2,0,0.3,0,0.4-0.1c0.1-0.1,0.2-0.2,0.3-0.3
			c0.1-0.1,0.1-0.3,0.1-0.4c0-0.3-0.1-0.5-0.2-0.6C61.8,36.7,61.6,36.6,61.3,36.6z"/>
		<path id="XMLID_50_" class="st0" d="M65.2,36.4v2.2h-0.3v-0.4c-0.1,0.1-0.2,0.2-0.4,0.3c-0.1,0.1-0.3,0.1-0.5,0.1
			c-0.3,0-0.6-0.1-0.8-0.3C63.1,38,63,37.8,63,37.4c0-0.3,0.1-0.6,0.3-0.8c0.2-0.2,0.5-0.3,0.8-0.3c0.2,0,0.3,0,0.5,0.1
			c0.1,0.1,0.3,0.2,0.4,0.3v-0.4H65.2z M64.1,36.6c-0.2,0-0.3,0-0.4,0.1c-0.1,0.1-0.2,0.2-0.3,0.3c-0.1,0.1-0.1,0.3-0.1,0.4
			c0,0.2,0,0.3,0.1,0.4c0.1,0.1,0.2,0.2,0.3,0.3c0.1,0.1,0.3,0.1,0.4,0.1c0.2,0,0.3,0,0.4-0.1c0.1-0.1,0.2-0.2,0.3-0.3
			c0.1-0.1,0.1-0.3,0.1-0.4c0-0.3-0.1-0.5-0.2-0.6C64.6,36.7,64.3,36.6,64.1,36.6z"/>
		<path id="XMLID_47_" class="st0" d="M68,35.5v3h-0.3v-0.4c-0.1,0.1-0.2,0.2-0.4,0.3c-0.1,0.1-0.3,0.1-0.5,0.1
			c-0.3,0-0.6-0.1-0.8-0.3c-0.2-0.2-0.3-0.5-0.3-0.8c0-0.3,0.1-0.6,0.3-0.8c0.2-0.2,0.5-0.3,0.8-0.3c0.2,0,0.3,0,0.5,0.1
			c0.1,0.1,0.3,0.2,0.4,0.3v-1.2H68z M66.9,36.6c-0.2,0-0.3,0-0.4,0.1c-0.1,0.1-0.2,0.2-0.3,0.3c-0.1,0.1-0.1,0.3-0.1,0.4
			c0,0.2,0,0.3,0.1,0.4c0.1,0.1,0.2,0.2,0.3,0.3c0.1,0.1,0.3,0.1,0.4,0.1c0.2,0,0.3,0,0.4-0.1c0.1-0.1,0.2-0.2,0.3-0.3
			c0.1-0.1,0.1-0.3,0.1-0.4c0-0.3-0.1-0.5-0.2-0.6C67.3,36.7,67.1,36.6,66.9,36.6z"/>
		<path id="XMLID_44_" class="st0" d="M70.5,37.8l0.2,0.1c-0.1,0.2-0.2,0.3-0.3,0.4c-0.1,0.1-0.2,0.2-0.3,0.2
			c-0.1,0-0.3,0.1-0.4,0.1c-0.4,0-0.6-0.1-0.8-0.3c-0.2-0.2-0.3-0.5-0.3-0.8c0-0.3,0.1-0.5,0.3-0.7c0.2-0.3,0.5-0.4,0.9-0.4
			c0.4,0,0.7,0.1,0.9,0.4c0.2,0.2,0.2,0.4,0.2,0.7h-2c0,0.3,0.1,0.5,0.2,0.6c0.2,0.2,0.3,0.2,0.6,0.2c0.1,0,0.2,0,0.3-0.1
			c0.1,0,0.2-0.1,0.3-0.2C70.3,38.1,70.4,38,70.5,37.8z M70.5,37.2c0-0.1-0.1-0.3-0.2-0.4c-0.1-0.1-0.2-0.2-0.3-0.2
			c-0.1-0.1-0.2-0.1-0.4-0.1c-0.2,0-0.4,0.1-0.5,0.2c-0.1,0.1-0.2,0.2-0.3,0.4H70.5z"/>
	</g>
	<path id="XMLID_36_" class="st0" d="M5.7,37C5.5,37,5.3,37,5,37c-0.4,0-0.9-0.1-1.3-0.1c-0.2,0-0.4,0-0.6-0.1c0,0,0,0,0,0l0-0.2
		c0-0.2,0-0.3,0.1-0.5c0-0.1,0-0.1,0-0.2c0-0.2,0.1-0.5,0.1-0.7c0-0.1,0-0.1,0-0.2c0,0,0-0.1,0-0.1l0,0l0,0c0-0.1,0-0.1,0-0.2l0-0.1
		l-0.1,0.1l-0.1,0.1l0,0l0-0.2l-0.1,0.1l0,0l0,0l0,0l0-0.1l0-0.2l-0.1,0.2C3,34.5,3,34.5,2.9,34.7c0,0.2-0.1,0.4-0.1,0.6
		c0,0.1,0,0.1,0,0.2c0,0.1-0.1,0.3,0,0.4c0,0,0,0.1,0,0.1c0,0,0,0.1,0,0.2c-0.1,0.2-0.1,0.3-0.1,0.5l0,0.1c0,0,0,0,0,0
		c0,0,0,0-0.1,0c-0.1,0-0.2,0-0.2,0c-0.1,0-0.2,0-0.4,0c-0.2,0-0.5-0.1-0.8-0.1c-0.1,0-0.2,0-0.3,0c0,0-0.1,0-0.1,0l0,0l0,0
		c0,0-0.1,0-0.1,0c0,0-0.1,0-0.1,0l-0.1,0l0.1,0.1l0.1,0.1c0,0,0,0,0,0l0,0l0,0c0,0,0,0-0.1,0c0,0,0,0,0,0c0,0,0,0-0.1,0l0,0l0,0
		l0,0l0,0l-0.2,0l0.1,0.1c0.1,0.1,0.2,0.1,0.3,0.1C0.7,37,0.8,37,0.9,37c0,0,0.1,0,0.1,0c0.1,0,0.1,0,0.2,0c0,0,0.1,0,0.1,0
		c0.1,0,0.1,0,0.2,0c0,0,0.1,0,0.1,0c0,0,0,0,0,0c0,0,0,0,0,0c0,0,0,0,0,0c0,0,0,0,0,0c0,0,0,0,0.1,0c0.1,0,0.1,0,0.2,0
		c0.1,0,0.1,0,0.2,0c0,0,0.1,0,0.1,0c0.1,0,0.2,0,0.3,0c0,0,0,0,0,0c0,0,0,0,0,0c0,0.1,0,0.1,0,0.2c0,0.2,0,0.4,0,0.5
		c0,0.3,0,0.6,0,0.8c0,0.1,0,0.2,0,0.3c0,0,0,0,0,0.1c0,0,0,0,0,0.1c0,0,0,0,0,0.1c0,0,0,0,0,0c0,0,0,0.1,0.1,0.1c0,0,0,0,0,0
		c0,0,0,0,0,0c0,0,0,0,0,0c0,0,0,0,0,0.1c0,0,0,0.1,0,0.1c0,0,0.1,0,0.1,0.1l0,0l0,0c0,0,0.1,0,0.1,0.1L3.2,40l0-0.1l0,0
		c0-0.1,0-0.2,0-0.3C3,39.1,3,38.5,3,38c0-0.1,0-0.3,0-0.4c0-0.1,0-0.1,0-0.2c0-0.1,0-0.1,0-0.2c0,0,0,0,0,0c0,0,0,0,0,0
		c0,0,0,0,0.1,0c0,0,0.1,0,0.1,0c0.1,0,0.2,0,0.4,0c0.1,0,0.1,0,0.2,0c0.1,0,0.3,0,0.4,0c0,0,0.1,0,0.1,0c0.1,0,0.2,0,0.3,0
		c0,0,0.1,0,0.2,0c0,0,0.1,0,0.1,0c0,0,0,0,0,0c0,0,0,0,0,0c0,0,0,0,0,0c0,0,0.1,0,0.1,0c0,0,0,0,0.1,0c0,0,0,0,0,0c0,0,0.1,0,0.1,0
		c0,0,0,0,0,0c0,0,0,0,0,0c0,0,0,0,0,0c0,0,0,0,0,0c0,0,0,0,0.1,0h0c0,0,0.1,0,0.1,0c0,0,0,0,0.1,0l0,0l0,0c0,0,0.1,0,0.1,0l0,0l0,0
		l0,0l0,0C5.7,37.2,5.7,37.1,5.7,37l0.2,0L5.7,37z M0.5,36.8L0.5,36.8L0.5,36.8L0.5,36.8z"/>
	<path id="XMLID_25_" class="st1" d="M5.6,36.9c-0.3,0-0.5-0.1-0.7-0.1c-0.4,0-0.9-0.1-1.3-0.1c-0.2,0-0.4,0-0.6-0.1c0,0,0,0,0,0
		l0-0.2c0-0.2,0-0.3,0.1-0.5c0-0.1,0-0.1,0-0.2c0-0.2,0.1-0.5,0.1-0.7c0-0.1,0-0.1,0-0.2c0,0,0-0.1,0-0.1l0,0l0,0c0-0.1,0-0.1,0-0.2
		l0-0.1l-0.1,0.1l-0.1,0.1l0,0l0-0.2L3,34.4c0,0,0,0,0,0l0,0l0,0l0-0.1l0-0.2l-0.1,0.2c-0.1,0.1-0.1,0.2-0.1,0.3
		c0,0.2-0.1,0.4-0.1,0.6c0,0.1,0,0.1,0,0.2c0,0.1-0.1,0.3,0,0.4c0,0,0,0.1,0,0.1c0,0,0,0.1,0,0.2c-0.1,0.2-0.1,0.3-0.1,0.5l0,0.1
		c0,0,0,0,0,0c0,0,0,0-0.1,0c-0.1,0-0.2,0-0.2,0c-0.1,0-0.2,0-0.4,0c-0.2,0-0.5-0.1-0.8-0.1c-0.1,0-0.2,0-0.3,0c0,0-0.1,0-0.1,0l0,0
		l0,0c0,0-0.1,0-0.1,0c0,0-0.1,0-0.1,0l-0.1,0l0.1,0.1l0.1,0.1c0,0,0,0,0,0l0,0l0,0c0,0,0,0-0.1,0l0,0c0,0,0,0-0.1,0l0,0l0,0l0,0
		l0,0l-0.2,0l0.1,0.1c0.1,0.1,0.2,0.1,0.3,0.1c0.1,0,0.2,0.1,0.4,0.1c0,0,0.1,0,0.1,0c0.1,0,0.1,0,0.2,0c0,0,0.1,0,0.1,0
		c0.1,0,0.1,0,0.2,0c0,0,0.1,0,0.1,0c0,0,0,0,0,0c0,0,0,0,0,0c0,0,0,0,0,0c0,0,0,0,0,0c0,0,0,0,0.1,0c0.1,0,0.1,0,0.2,0
		c0.1,0,0.1,0,0.2,0c0,0,0.1,0,0.1,0c0.1,0,0.2,0,0.3,0c0,0,0,0,0,0c0,0,0,0,0,0c0,0.1,0,0.1,0,0.2c0,0.2,0,0.4,0,0.5
		c0,0.3,0,0.6,0,0.8c0,0.1,0,0.2,0,0.3c0,0,0,0,0,0.1c0,0,0,0,0,0.1c0,0,0,0,0,0.1c0,0,0,0,0,0c0,0,0,0.1,0.1,0.1c0,0,0,0,0,0
		c0,0,0,0,0,0c0,0,0,0,0,0c0,0,0,0,0,0.1c0,0,0,0.1,0,0.1c0,0,0.1,0,0.1,0.1l0,0l0,0c0,0,0.1,0,0.1,0.1L3,39.8l0-0.1l0,0
		c0-0.1,0-0.2,0-0.3c-0.1-0.5-0.1-1-0.1-1.5c0-0.1,0-0.3,0-0.4c0-0.1,0-0.1,0-0.2c0-0.1,0-0.1,0-0.2c0,0,0,0,0,0c0,0,0,0,0,0
		c0,0,0,0,0.1,0c0,0,0.1,0,0.1,0c0.1,0,0.2,0,0.4,0c0.1,0,0.1,0,0.2,0c0.1,0,0.3,0,0.4,0c0,0,0.1,0,0.1,0c0.1,0,0.2,0,0.3,0
		c0,0,0.1,0,0.2,0c0,0,0.1,0,0.1,0c0,0,0,0,0,0c0,0,0,0,0,0c0,0,0,0,0,0c0,0,0.1,0,0.1,0c0,0,0,0,0.1,0c0,0,0,0,0,0c0,0,0.1,0,0.1,0
		c0,0,0,0,0,0c0,0,0,0,0,0c0,0,0,0,0,0c0,0,0,0,0,0c0,0,0,0,0.1,0h0c0,0,0.1,0,0.1,0c0,0,0,0,0.1,0l0,0l0,0c0,0,0.1,0,0.1,0l0,0l0,0
		l0,0l0,0C5.6,37,5.6,37,5.6,36.9l0.2,0L5.6,36.9z M0.4,36.6L0.4,36.6L0.4,36.6L0.4,36.6z"/>
	<path id="XMLID_23_" class="st1" d="M0.3,30.6c3.1-0.2,6.2-0.3,9.4-0.4l2.3-0.1l2.3-0.1l2.3-0.1l2.3-0.1c1.6,0,3.1-0.1,4.7-0.2
		c0.8,0,1.6-0.1,2.3-0.1c0.8,0,1.6,0,2.3,0c1.6,0.1,3.1,0.2,4.7,0.3c0.8,0.1,1.6,0.2,2.3,0.3c0.4,0.1,0.8,0.1,1.2,0.2
		c0.4,0.1,0.8,0.1,1.2,0.2c0.1,0,0.1,0.1,0.1,0.1c0,0,0,0.1-0.1,0.1c-0.4,0.1-0.8,0.1-1.2,0.2c-0.4,0.1-0.8,0.1-1.2,0.2
		c-0.8,0.1-1.6,0.2-2.3,0.3c-1.6,0.1-3.1,0.2-4.7,0.3c-0.8,0-1.6,0-2.3,0c-0.8,0-1.6,0-2.3-0.1c-1.6-0.1-3.1-0.2-4.7-0.2l-2.3-0.1
		l-2.3-0.1L12,31.3l-2.3-0.1c-3.1-0.1-6.2-0.2-9.4-0.4C0.3,30.8,0.2,30.7,0.3,30.6C0.2,30.6,0.3,30.6,0.3,30.6z"/>
	<path id="XMLID_22_" class="st1" d="M70.9,30.8c-2.1,0.2-4.2,0.3-6.3,0.4l-1.6,0.1l-1.6,0.1l-1.6,0.1l-1.6,0.1
		c-1,0-2.1,0.1-3.1,0.2c-0.5,0-1,0.1-1.6,0.1c-0.5,0-1,0-1.6,0c-1-0.1-2.1-0.2-3.1-0.3c-0.5-0.1-1-0.2-1.6-0.3
		c-0.3-0.1-0.5-0.1-0.8-0.2c-0.3-0.1-0.5-0.1-0.8-0.2v-0.2c0.3-0.1,0.5-0.1,0.8-0.2c0.3-0.1,0.5-0.1,0.8-0.2c0.5-0.1,1-0.2,1.6-0.3
		c1-0.1,2.1-0.2,3.1-0.3c0.5,0,1,0,1.6,0c0.5,0,1,0,1.6,0.1c1,0.1,2.1,0.2,3.1,0.2l1.6,0.1l1.6,0.1l1.6,0.1l1.6,0.1
		c2.1,0.1,4.2,0.2,6.3,0.4V30.8z"/>
	<g id="XMLID_21_">
		<linearGradient id="SVGID_1_" gradientUnits="userSpaceOnUse" x1="42.358" y1="3.1043" x2="42.358" y2="19.9395">
			<stop  offset="0" style="stop-color:#7DA03D"/>
			<stop  offset="0.392" style="stop-color:#7DA03D"/>
			<stop  offset="0.7056" style="stop-color:#6E8A3D"/>
			<stop  offset="1" style="stop-color:#63813D"/>
		</linearGradient>
		<path class="st2" d="M49.6,9.5c-0.2,0-0.4,0-0.7,0.1c-0.3,0.1-0.6,0.1-0.9,0.2c-0.3,0.1-0.6,0.2-1,0.4c-0.3,0.1-0.7,0.4-1,0.6
			c-0.3,0.2-0.6,0.5-1,0.7c-0.3,0.3-0.6,0.5-0.9,0.8c-0.5,0.6-1,1.2-1.3,1.8c-0.2,0.3-0.3,0.6-0.5,0.9c0,0.1-0.1,0.2-0.1,0.2
			c0.1-0.8,0.3-1.6,0.5-2.4c0.2-0.9,0.5-1.9,0.8-2.7C43.8,9.8,44,9.4,44.2,9c0.2-0.4,0.4-0.7,0.7-1c0.2-0.3,0.5-0.5,0.7-0.7
			c0.3-0.2,0.5-0.4,0.7-0.5c0.2-0.1,0.4-0.2,0.5-0.2c0.1-0.1,0.2-0.1,0.2-0.1s-0.1,0-0.2,0c-0.1,0-0.3,0.1-0.6,0.2
			c-0.2,0.1-0.5,0.2-0.8,0.4c-0.3,0.2-0.6,0.4-0.9,0.7c-0.3,0.3-0.6,0.6-0.9,1C43.4,9.1,43.2,9.5,43,10c-0.2,0.4-0.4,0.9-0.6,1.3
			c-0.1,0.2-0.1,0.4-0.2,0.6c0-0.1,0-0.2,0-0.3c0-2.1-0.1-4.2-0.2-5.8C42,5,42,4.4,41.9,4l0,0c0,0,0,0,0-0.1c0,0,0-0.1,0-0.1l0,0
			c0-0.5-0.1-0.7-0.1-0.7s0,0.3-0.1,0.7c0,0.5-0.1,1.1-0.2,1.9c-0.1,1.6-0.2,3.7-0.2,5.8c0,0.3,0,0.6,0,0.9
			c-0.1-0.4-0.2-0.8-0.3-1.2c-0.1-0.5-0.4-0.9-0.6-1.3c-0.2-0.4-0.5-0.8-0.7-1.2c-0.3-0.4-0.6-0.7-0.9-1c-0.3-0.3-0.6-0.5-0.9-0.7
			c-0.3-0.2-0.6-0.3-0.8-0.4c-0.2-0.1-0.4-0.1-0.6-0.2c-0.1,0-0.2,0-0.2,0s0.1,0,0.2,0.1c0.1,0.1,0.3,0.1,0.5,0.2
			c0.2,0.1,0.5,0.3,0.7,0.5C38,7.5,38.3,7.7,38.5,8c0.2,0.3,0.5,0.6,0.7,1c0,0,0,0,0,0c0,0,0.1,0.1,0.1,0.2c0,0,0,0.1,0,0.1
			c0,0.1,0.1,0.2,0.1,0.3c0.1,0.2,0.2,0.4,0.3,0.6c0.3,0.8,0.6,1.8,0.8,2.7c0.1,0.5,0.2,1,0.3,1.5c-0.2-0.6-0.5-1.2-0.9-1.7
			c-0.2-0.3-0.5-0.6-0.7-0.9c-0.3-0.3-0.6-0.5-0.9-0.7c-0.3-0.2-0.6-0.4-0.9-0.6c-0.3-0.1-0.6-0.3-0.9-0.4C36.2,10,36,9.9,35.7,9.8
			c-0.3,0-0.5-0.1-0.7-0.1c-0.4,0-0.6,0-0.6,0s0.2,0.1,0.5,0.2c0.2,0.1,0.4,0.1,0.6,0.2c0.2,0.1,0.5,0.2,0.7,0.3
			c0.3,0.1,0.5,0.3,0.8,0.5c0.3,0.2,0.5,0.4,0.8,0.6c0.3,0.2,0.5,0.5,0.7,0.7c0.2,0.3,0.5,0.5,0.6,0.8c0.1,0.1,0.3,0.4,0.6,0.9
			c0.2,0.4,0.4,0.6,0.5,0.9c0.3,0.6,0.4,1.2,0.5,1.6c0.1,0.3,0.1,0.5,0.1,0.7c0,0.3,0.1,0.7,0.1,1c0,0.4-0.1,0.8-0.1,1.2
			c0,0.2,0,0.4,0,0.6c0.6,0,1.2,0,1.9,0c0-0.1,0-0.3-0.1-0.5c-0.1-0.7-0.2-2.2,0.5-3.9c0.1-0.3,0.4-1.2,1-2c0.3-0.4,0.6-0.8,0.7-0.9
			c0.2-0.3,0.5-0.5,0.8-0.8c0.3-0.2,0.6-0.5,0.8-0.7c0.3-0.2,0.6-0.4,0.9-0.6c0.3-0.2,0.6-0.3,0.8-0.5c0.3-0.1,0.5-0.2,0.8-0.3
			c0.2-0.1,0.5-0.1,0.6-0.2c0.4-0.1,0.6-0.2,0.6-0.2S50,9.4,49.6,9.5z"/>
	</g>
	<g id="XMLID_20_">
		<linearGradient id="SVGID_2_" gradientUnits="userSpaceOnUse" x1="52.1168" y1="6.6295" x2="52.1168" y2="9.7174">
			<stop  offset="0" style="stop-color:#7DA03D"/>
			<stop  offset="0.392" style="stop-color:#7DA03D"/>
			<stop  offset="0.7056" style="stop-color:#6E8A3D"/>
			<stop  offset="1" style="stop-color:#63813D"/>
		</linearGradient>
		<path class="st3" d="M53.9,7.5c0-0.1-0.1-0.3-0.1-0.4c0-0.1-0.1-0.2-0.2-0.3c-0.1-0.1-0.1-0.1-0.2-0.2c0,0-0.1-0.1-0.1-0.1
			s0,0-0.1,0c-0.1,0-0.1,0.1-0.2,0.1c-0.1,0-0.2,0.1-0.3,0.1c-0.1,0-0.2,0.1-0.3,0.1C52.3,7,52.2,7,52.1,7c-0.1,0-0.2,0.1-0.3,0.1
			c-0.1,0-0.2,0.1-0.3,0.1c-0.1,0.1-0.2,0.1-0.3,0.2c-0.2,0.1-0.3,0.3-0.4,0.5c-0.1,0.2-0.2,0.4-0.3,0.6c0,0.1-0.1,0.2-0.1,0.3
			c0,0.1,0,0.2-0.1,0.3c0,0,0,0.1,0,0.1c0.8-0.4,2.1-1,2.4-1.4c0,0-0.3,0.8-2.2,1.7c0,0,0.1,0,0.2,0c0.1,0,0.2,0.1,0.3,0.1
			c0.1,0,0.3,0,0.4,0c0.3,0,0.6,0,0.9-0.1c0.3-0.1,0.6-0.3,0.9-0.5c0.1-0.1,0.2-0.2,0.3-0.3c0.1-0.1,0.2-0.3,0.2-0.4
			c0.1-0.1,0.1-0.3,0.1-0.4C53.9,7.8,53.9,7.6,53.9,7.5z"/>
	</g>
	<g id="XMLID_19_">
		<linearGradient id="SVGID_3_" gradientUnits="userSpaceOnUse" x1="34.0613" y1="4.2551" x2="34.0613" y2="7.1251">
			<stop  offset="0" style="stop-color:#7DA03D"/>
			<stop  offset="0.392" style="stop-color:#7DA03D"/>
			<stop  offset="0.7056" style="stop-color:#6E8A3D"/>
			<stop  offset="1" style="stop-color:#63813D"/>
		</linearGradient>
		<path class="st4" d="M32,5.7c0.1,0.1,0.2,0.3,0.3,0.4c0.1,0.1,0.2,0.3,0.4,0.4c0.1,0.1,0.3,0.2,0.5,0.3c0.3,0.2,0.7,0.3,1.1,0.3
			c0.4,0,0.7,0,1-0.1c0.2,0,0.3-0.1,0.4-0.1c0.1,0,0.2-0.1,0.3-0.2c0.1,0,0.1-0.1,0.1-0.1c-2.3-0.4-2.9-1.2-2.9-1.2
			c0.4,0.4,2,0.8,3,1c0,0,0-0.1-0.1-0.1c0-0.1-0.1-0.2-0.2-0.3c-0.1-0.1-0.1-0.2-0.2-0.3c-0.1-0.2-0.3-0.4-0.5-0.6
			c-0.2-0.2-0.4-0.3-0.6-0.4c-0.1,0-0.2-0.1-0.3-0.1c-0.1,0-0.2-0.1-0.4-0.1c-0.1,0-0.2,0-0.4,0c-0.1,0-0.2,0-0.4,0
			c-0.1,0-0.3,0-0.4,0c-0.1,0-0.2,0-0.3,0c-0.1,0-0.2,0-0.3,0c-0.1,0-0.1,0-0.1,0s0,0-0.1,0.1c0,0-0.1,0.1-0.1,0.2
			c0,0.1-0.1,0.2-0.1,0.3c0,0.1,0,0.3,0,0.4C31.9,5.4,32,5.6,32,5.7z"/>
	</g>
	<g id="XMLID_18_">
		<linearGradient id="SVGID_4_" gradientUnits="userSpaceOnUse" x1="32.3828" y1="8.0836" x2="32.3828" y2="10.364">
			<stop  offset="0" style="stop-color:#7DA03D"/>
			<stop  offset="0.392" style="stop-color:#7DA03D"/>
			<stop  offset="0.7056" style="stop-color:#6E8A3D"/>
			<stop  offset="1" style="stop-color:#63813D"/>
		</linearGradient>
		<path class="st5" d="M34.2,9.8c0,0,0.1-0.1,0.1-0.1c-2-0.1-2.7-0.7-2.7-0.7c0.4,0.3,1.8,0.4,2.7,0.5c0,0,0-0.1-0.1-0.1
			c0-0.1-0.1-0.1-0.2-0.2C34.1,9.1,34,9,33.9,8.9c-0.2-0.2-0.3-0.3-0.5-0.4c-0.2-0.1-0.4-0.2-0.6-0.3c-0.1,0-0.2-0.1-0.3-0.1
			c-0.1,0-0.2,0-0.3,0c-0.1,0-0.2,0-0.3,0c-0.1,0-0.2,0-0.3,0c-0.1,0-0.2,0-0.3,0c-0.1,0-0.2,0-0.3,0c-0.1,0-0.2,0-0.2,0
			c-0.1,0-0.1,0-0.1,0s0,0,0,0.1c0,0-0.1,0.1-0.1,0.2c0,0.1,0,0.2,0,0.3c0,0.1,0,0.2,0.1,0.4c0,0.1,0.1,0.2,0.2,0.4
			c0.1,0.1,0.2,0.2,0.3,0.3c0.1,0.1,0.3,0.2,0.4,0.3c0.1,0.1,0.3,0.1,0.5,0.2c0.3,0.1,0.6,0.1,1,0.1c0.3,0,0.6-0.1,0.9-0.2
			c0.1-0.1,0.2-0.1,0.3-0.2C34.1,9.9,34.2,9.9,34.2,9.8z"/>
	</g>
	<g id="XMLID_17_">
		<linearGradient id="SVGID_5_" gradientUnits="userSpaceOnUse" x1="48.3501" y1="4.3846" x2="48.3501" y2="6.5515">
			<stop  offset="0" style="stop-color:#7DA03D"/>
			<stop  offset="0.392" style="stop-color:#7DA03D"/>
			<stop  offset="0.7056" style="stop-color:#6E8A3D"/>
			<stop  offset="1" style="stop-color:#63813D"/>
		</linearGradient>
		<path class="st6" d="M48.7,5.3c0,0-0.2,0.6-1.5,1.2c0,0,0.1,0,0.1,0c0.1,0,0.2,0,0.2,0c0.1,0,0.2,0,0.3,0c0.2,0,0.4,0,0.6-0.1
			c0.2-0.1,0.4-0.2,0.6-0.3c0.1-0.1,0.2-0.2,0.2-0.2c0.1-0.1,0.1-0.2,0.2-0.3c0-0.1,0.1-0.2,0.1-0.3c0-0.1,0-0.2,0-0.3
			c0-0.1-0.1-0.2-0.1-0.3c0-0.1-0.1-0.1-0.1-0.2c0,0-0.1-0.1-0.1-0.1c0,0,0,0,0,0s0,0-0.1,0c0,0-0.1,0-0.2,0.1c-0.1,0-0.1,0-0.2,0.1
			c-0.1,0-0.1,0-0.2,0.1c-0.1,0-0.2,0-0.2,0.1c-0.1,0-0.1,0.1-0.2,0.1c-0.1,0-0.1,0.1-0.2,0.1c-0.1,0-0.1,0.1-0.2,0.1
			c-0.1,0.1-0.2,0.2-0.3,0.4c-0.1,0.1-0.1,0.3-0.2,0.4c0,0.1,0,0.1-0.1,0.2c0,0.1,0,0.1,0,0.2c0,0,0,0.1,0,0.1
			C47.7,6,48.6,5.6,48.7,5.3z"/>
	</g>
	<g id="XMLID_16_">
		<linearGradient id="SVGID_6_" gradientUnits="userSpaceOnUse" x1="45.1806" y1="4.3117" x2="45.1806" y2="6.4567">
			<stop  offset="0" style="stop-color:#7DA03D"/>
			<stop  offset="0.392" style="stop-color:#7DA03D"/>
			<stop  offset="0.7056" style="stop-color:#6E8A3D"/>
			<stop  offset="1" style="stop-color:#63813D"/>
		</linearGradient>
		<path class="st7" d="M44.4,5.7c0.1,0.2,0.2,0.3,0.3,0.4c0.1,0.1,0.3,0.2,0.5,0.2c0.1,0,0.2,0,0.2,0.1c0.1,0,0.1,0,0.2,0
			c0,0,0.1,0,0.1,0C45,5.6,45,5.1,45,5.1c0,0.3,0.5,0.9,0.9,1.2c0,0,0,0,0-0.1c0,0,0-0.1,0-0.2c0-0.1,0-0.1,0-0.2c0-0.1,0-0.3,0-0.4
			c0-0.1-0.1-0.2-0.1-0.4c0-0.1-0.1-0.1-0.1-0.2c0,0-0.1-0.1-0.1-0.1c0,0-0.1-0.1-0.1-0.1c0,0-0.1-0.1-0.2-0.1
			c-0.1,0-0.1-0.1-0.2-0.1c-0.1,0-0.1-0.1-0.1-0.1c0,0-0.1-0.1-0.1-0.1c0,0,0,0,0,0s0,0-0.1,0c0,0-0.1,0-0.1,0.1
			c-0.1,0-0.1,0.1-0.2,0.1c-0.1,0-0.1,0.1-0.2,0.2c0,0.1-0.1,0.1-0.1,0.2c0,0.1,0,0.2-0.1,0.3c0,0.1,0,0.2,0,0.3
			C44.4,5.5,44.4,5.6,44.4,5.7z"/>
	</g>
	<g id="XMLID_15_">
		<linearGradient id="SVGID_7_" gradientUnits="userSpaceOnUse" x1="47.5184" y1="7.339" x2="47.5184" y2="8.7377">
			<stop  offset="0" style="stop-color:#7DA03D"/>
			<stop  offset="0.392" style="stop-color:#7DA03D"/>
			<stop  offset="0.7056" style="stop-color:#6E8A3D"/>
			<stop  offset="1" style="stop-color:#63813D"/>
		</linearGradient>
		<path class="st8" d="M46.5,7.5c-0.1,0-0.1,0-0.2,0.1c0,0-0.1,0-0.1,0c0.5,0.2,1.3,0.6,1.6,0.5c0,0-0.6,0.1-1.7-0.4
			c0,0,0,0.1,0,0.1c0,0,0,0.1,0.1,0.2c0,0.1,0.1,0.1,0.1,0.2c0.1,0.1,0.2,0.3,0.4,0.4c0.2,0.1,0.3,0.2,0.5,0.2c0.1,0,0.2,0,0.3,0
			c0.1,0,0.2,0,0.3,0c0.1,0,0.2-0.1,0.3-0.1c0.1,0,0.2-0.1,0.3-0.1c0.1-0.1,0.1-0.1,0.2-0.2c0.1,0,0.1-0.1,0.1-0.2c0,0,0-0.1,0-0.1
			c0,0,0,0,0,0s0,0,0,0c0,0-0.1,0-0.1-0.1c0,0-0.1-0.1-0.2-0.1c0,0-0.1-0.1-0.2-0.1c-0.1,0-0.1-0.1-0.2-0.1c-0.1,0-0.1-0.1-0.2-0.1
			c-0.1,0-0.1-0.1-0.2-0.1c-0.1,0-0.1,0-0.2-0.1c-0.1,0-0.3,0-0.4,0c-0.2,0-0.3,0-0.5,0.1C46.7,7.4,46.6,7.5,46.5,7.5z"/>
	</g>
	<g id="XMLID_12_">
		<linearGradient id="SVGID_8_" gradientUnits="userSpaceOnUse" x1="49.8993" y1="10.4563" x2="49.8993" y2="11.9169">
			<stop  offset="0" style="stop-color:#7DA03D"/>
			<stop  offset="0.392" style="stop-color:#7DA03D"/>
			<stop  offset="0.7056" style="stop-color:#6E8A3D"/>
			<stop  offset="1" style="stop-color:#63813D"/>
		</linearGradient>
		<path class="st9" d="M51,11.2c0,0-0.1-0.1-0.1-0.1c0,0-0.1-0.1-0.1-0.1c0,0-0.1-0.1-0.1-0.1c0,0-0.1-0.1-0.1-0.1
			c-0.1,0-0.1-0.1-0.2-0.1c-0.1,0-0.1-0.1-0.2-0.1c-0.1,0-0.3-0.1-0.4-0.1c-0.2,0-0.3,0-0.5,0c-0.1,0-0.2,0-0.2,0
			c-0.1,0-0.1,0-0.2,0c0,0-0.1,0-0.1,0c0.4,0.3,1.2,0.8,1.5,0.8c0,0-0.6,0-1.6-0.6c0,0,0,0.1,0,0.1c0,0,0,0.1,0,0.2
			c0,0.1,0,0.1,0.1,0.2c0.1,0.1,0.2,0.3,0.3,0.4c0.1,0.1,0.3,0.2,0.5,0.3c0.1,0,0.2,0.1,0.3,0.1c0.1,0,0.2,0,0.3,0
			c0.1,0,0.2,0,0.3,0c0.1,0,0.2-0.1,0.3-0.1c0.1,0,0.2-0.1,0.2-0.1c0.1,0,0.1-0.1,0.1-0.1c0,0,0.1-0.1,0.1-0.1c0,0,0,0,0,0s0,0,0,0
			C51.1,11.3,51.1,11.3,51,11.2z"/>
	</g>
	<g id="XMLID_11_">
		<linearGradient id="SVGID_9_" gradientUnits="userSpaceOnUse" x1="45.3338" y1="8.9852" x2="45.3338" y2="9.9497">
			<stop  offset="0" style="stop-color:#7DA03D"/>
			<stop  offset="0.392" style="stop-color:#7DA03D"/>
			<stop  offset="0.7056" style="stop-color:#6E8A3D"/>
			<stop  offset="1" style="stop-color:#63813D"/>
		</linearGradient>
		<path class="st10" d="M44.4,9.2C44.4,9.3,44.4,9.3,44.4,9.2c0,0.1,0,0.1,0.1,0.2c0,0,0,0.1,0.1,0.1c0.1,0.1,0.1,0.2,0.3,0.2
			c0.1,0.1,0.2,0.1,0.4,0.2c0.1,0,0.1,0,0.2,0c0.1,0,0.2,0,0.2,0c0.1,0,0.1,0,0.2-0.1c0.1,0,0.1-0.1,0.2-0.1c0.1,0,0.1-0.1,0.1-0.1
			c0,0,0.1-0.1,0.1-0.1c0,0,0-0.1,0-0.1c0,0,0,0,0,0s0,0,0,0c0,0-0.1,0-0.1,0c0,0-0.1,0-0.1-0.1c0,0-0.1,0-0.1-0.1
			c0,0-0.1-0.1-0.1-0.1c0,0-0.1,0-0.1-0.1c0,0-0.1,0-0.1-0.1c0,0-0.1,0-0.1,0c-0.1,0-0.2,0-0.3,0c-0.1,0-0.2,0-0.3,0
			c-0.1,0-0.1,0-0.2,0c0,0-0.1,0-0.1,0C44.5,9.1,44.5,9.1,44.4,9.2c0.4,0.1,1,0.3,1.2,0.3C45.6,9.5,45.2,9.6,44.4,9.2z"/>
	</g>
	<g id="XMLID_10_">
		<linearGradient id="SVGID_10_" gradientUnits="userSpaceOnUse" x1="38.3055" y1="4.6117" x2="38.3055" y2="6.8313">
			<stop  offset="0" style="stop-color:#7DA03D"/>
			<stop  offset="0.392" style="stop-color:#7DA03D"/>
			<stop  offset="0.7056" style="stop-color:#6E8A3D"/>
			<stop  offset="1" style="stop-color:#63813D"/>
		</linearGradient>
		<path class="st11" d="M37.6,6.5c0,0.1,0.1,0.1,0.1,0.2c0,0,0,0.1,0,0.1c0.3-0.4,0.7-1.1,0.6-1.3c0,0,0.1,0.5-0.5,1.4
			c0,0,0.1,0,0.1,0c0.1,0,0.1,0,0.2-0.1c0.1,0,0.1-0.1,0.2-0.1c0.2-0.1,0.3-0.2,0.4-0.3c0.1-0.1,0.2-0.3,0.3-0.5c0-0.1,0-0.2,0-0.3
			c0-0.1,0-0.2,0-0.3c0-0.1-0.1-0.2-0.1-0.3C39,5,38.9,5,38.9,4.9c-0.1-0.1-0.1-0.1-0.2-0.2c-0.1,0-0.1-0.1-0.2-0.1
			c-0.1,0-0.1,0-0.1,0c0,0-0.1,0-0.1,0s0,0,0,0c0,0-0.1,0.1-0.1,0.1c0,0-0.1,0.1-0.1,0.1C38,4.9,38,5,37.9,5c0,0-0.1,0.1-0.1,0.1
			c0,0-0.1,0.1-0.1,0.1c0,0-0.1,0.1-0.1,0.1c0,0.1,0,0.1-0.1,0.2c0,0.1,0,0.2,0,0.4c0,0.1,0,0.3,0.1,0.4C37.6,6.4,37.6,6.5,37.6,6.5
			z"/>
	</g>
	<g id="XMLID_9_">
		<linearGradient id="SVGID_11_" gradientUnits="userSpaceOnUse" x1="40.0276" y1="6.7678" x2="40.0276" y2="8.2993">
			<stop  offset="0" style="stop-color:#7DA03D"/>
			<stop  offset="0.392" style="stop-color:#7DA03D"/>
			<stop  offset="0.7056" style="stop-color:#6E8A3D"/>
			<stop  offset="1" style="stop-color:#63813D"/>
		</linearGradient>
		<path class="st12" d="M39.6,8.1c0,0,0,0.1,0.1,0.1c0,0,0,0,0,0.1c0.2-0.3,0.5-0.7,0.4-0.9c0,0,0.1,0.3-0.3,1c0,0,0,0,0.1,0
			c0,0,0.1,0,0.1,0c0.1,0,0.1,0,0.2-0.1c0.1-0.1,0.2-0.1,0.3-0.2c0.1-0.1,0.1-0.2,0.2-0.3c0-0.1,0-0.1,0-0.2c0-0.1,0-0.1,0-0.2
			c0-0.1,0-0.1-0.1-0.2c0-0.1-0.1-0.1-0.1-0.2c0,0-0.1-0.1-0.1-0.1c0,0-0.1,0-0.1-0.1c0,0-0.1,0-0.1,0c0,0,0,0,0,0s0,0,0,0
			c0,0,0,0-0.1,0.1c0,0,0,0.1-0.1,0.1c0,0-0.1,0.1-0.1,0.1c0,0-0.1,0.1-0.1,0.1c0,0-0.1,0.1-0.1,0.1c0,0,0,0.1-0.1,0.1
			c0,0,0,0.1,0,0.1c0,0.1,0,0.2,0,0.3c0,0.1,0,0.2,0.1,0.3C39.5,8,39.5,8.1,39.6,8.1z"/>
	</g>
	<g id="XMLID_8_">
		<linearGradient id="SVGID_12_" gradientUnits="userSpaceOnUse" x1="47.3545" y1="11.5171" x2="47.3545" y2="12.5255">
			<stop  offset="0" style="stop-color:#7DA03D"/>
			<stop  offset="0.392" style="stop-color:#7DA03D"/>
			<stop  offset="0.7056" style="stop-color:#6E8A3D"/>
			<stop  offset="1" style="stop-color:#63813D"/>
		</linearGradient>
		<path class="st13" d="M48.1,12.1C48.1,12,48.1,12,48.1,12.1C48,11.9,48,11.9,48,11.9c0,0-0.1-0.1-0.1-0.1c0,0-0.1-0.1-0.1-0.1
			c0,0-0.1,0-0.1-0.1c0,0-0.1,0-0.1-0.1c-0.1,0-0.2-0.1-0.3-0.1c-0.1,0-0.2,0-0.3,0c-0.1,0-0.1,0-0.2,0c0,0-0.1,0-0.1,0
			c0,0,0,0-0.1,0c0.3,0.2,0.8,0.5,1,0.5c0,0-0.4,0-1.1-0.4c0,0,0,0,0,0.1c0,0,0,0.1,0,0.1c0,0,0,0.1,0,0.1c0,0.1,0.1,0.2,0.2,0.3
			c0.1,0.1,0.2,0.2,0.3,0.2c0.1,0,0.1,0,0.2,0.1c0.1,0,0.2,0,0.2,0c0.1,0,0.2,0,0.2,0c0.1,0,0.1,0,0.2-0.1c0.1,0,0.1-0.1,0.2-0.1
			c0,0,0.1-0.1,0.1-0.1c0,0,0-0.1,0-0.1c0,0,0,0,0,0S48.2,12.1,48.1,12.1C48.2,12.1,48.2,12.1,48.1,12.1z"/>
	</g>
	<g id="XMLID_7_">
		<linearGradient id="SVGID_13_" gradientUnits="userSpaceOnUse" x1="43.2977" y1="6.8183" x2="43.2977" y2="8.1764">
			<stop  offset="0" style="stop-color:#7DA03D"/>
			<stop  offset="0.392" style="stop-color:#7DA03D"/>
			<stop  offset="0.7056" style="stop-color:#6E8A3D"/>
			<stop  offset="1" style="stop-color:#63813D"/>
		</linearGradient>
		<path class="st14" d="M43,6.9c0,0-0.1,0.1-0.1,0.1c0,0-0.1,0.1-0.1,0.1c0,0.1,0,0.1,0,0.2c0,0.1,0,0.1,0,0.2c0,0.1,0,0.1,0.1,0.2
			C42.9,7.8,42.9,7.9,43,8c0.1,0.1,0.2,0.1,0.3,0.2c0.1,0,0.1,0,0.2,0c0,0,0.1,0,0.1,0c0,0,0,0,0.1,0c-0.5-0.5-0.5-0.8-0.5-0.8
			c0,0.2,0.3,0.5,0.6,0.8c0,0,0,0,0,0c0,0,0-0.1,0-0.1c0,0,0-0.1,0-0.1c0-0.1,0-0.2,0-0.3c0-0.1,0-0.2-0.1-0.2c0,0,0-0.1-0.1-0.1
			c0,0,0-0.1-0.1-0.1c0,0-0.1-0.1-0.1-0.1c0,0-0.1,0-0.1-0.1c0,0-0.1-0.1-0.1-0.1c0,0-0.1,0-0.1-0.1c0,0,0,0-0.1-0.1c0,0,0,0,0,0
			s0,0,0,0c0,0-0.1,0-0.1,0C43,6.9,43,6.9,43,6.9z"/>
	</g>
	<g id="XMLID_6_">
		<linearGradient id="SVGID_14_" gradientUnits="userSpaceOnUse" x1="38.3815" y1="8.9509" x2="38.3815" y2="9.9497">
			<stop  offset="0" style="stop-color:#7DA03D"/>
			<stop  offset="0.392" style="stop-color:#7DA03D"/>
			<stop  offset="0.7056" style="stop-color:#6E8A3D"/>
			<stop  offset="1" style="stop-color:#63813D"/>
		</linearGradient>
		<path class="st15" d="M37.7,9.5c0,0,0,0.1,0.1,0.1c0,0,0.1,0.1,0.1,0.1c0,0,0.1,0.1,0.1,0.1c0,0,0.1,0,0.2,0.1c0.1,0,0.1,0,0.2,0
			c0.1,0,0.2,0,0.3-0.1c0.1-0.1,0.2-0.1,0.3-0.2c0,0,0.1-0.1,0.1-0.1c0,0,0-0.1,0.1-0.1c0,0,0,0,0-0.1c-0.7,0.2-0.9,0.1-0.9,0.1
			c0.1,0.1,0.6-0.1,0.9-0.2c0,0,0,0,0,0c0,0-0.1,0-0.1-0.1c0,0-0.1,0-0.1-0.1C38.8,9,38.7,9,38.6,9c-0.1,0-0.2,0-0.2,0
			c0,0-0.1,0-0.1,0c0,0-0.1,0-0.1,0c0,0-0.1,0-0.1,0c0,0-0.1,0-0.1,0.1c0,0-0.1,0-0.1,0.1c0,0-0.1,0-0.1,0c0,0-0.1,0-0.1,0
			c0,0,0,0,0,0s0,0,0,0c0,0,0,0.1,0,0.1C37.7,9.4,37.7,9.5,37.7,9.5z"/>
	</g>
	<g id="XMLID_5_">
		<linearGradient id="SVGID_15_" gradientUnits="userSpaceOnUse" x1="36.3746" y1="7.2743" x2="36.3746" y2="8.8002">
			<stop  offset="0" style="stop-color:#7DA03D"/>
			<stop  offset="0.392" style="stop-color:#7DA03D"/>
			<stop  offset="0.7056" style="stop-color:#6E8A3D"/>
			<stop  offset="1" style="stop-color:#63813D"/>
		</linearGradient>
		<path class="st16" d="M37.5,7.3C37.4,7.3,37.4,7.3,37.5,7.3c-0.2,0-0.2,0-0.3,0c-0.1,0-0.2,0-0.2,0c-0.2,0-0.3,0-0.5,0
			c-0.2,0-0.3,0.1-0.4,0.1c-0.1,0-0.1,0.1-0.2,0.1c-0.1,0-0.1,0.1-0.1,0.1c0,0-0.1,0.1-0.1,0.1c0,0-0.1,0.1-0.1,0.1
			c0,0.1-0.1,0.1-0.1,0.1c0,0.1-0.1,0.1-0.1,0.1c0,0-0.1,0.1-0.1,0.1c0,0,0,0,0,0s0,0,0,0c0,0,0,0.1,0.1,0.1c0,0,0.1,0.1,0.2,0.1
			c0.1,0,0.1,0.1,0.2,0.1c0.1,0,0.2,0.1,0.3,0.1c0.1,0,0.2,0,0.3,0c0.1,0,0.2,0,0.3-0.1c0.1,0,0.2-0.1,0.3-0.1
			c0.2-0.1,0.3-0.2,0.5-0.3c0.1-0.1,0.2-0.3,0.2-0.4c0-0.1,0-0.1,0-0.2c0-0.1,0-0.1,0-0.2c0,0,0-0.1,0-0.1c-0.9,0.8-1.5,0.8-1.5,0.8
			C36.4,8.2,37.1,7.6,37.5,7.3z"/>
	</g>
	<g id="XMLID_4_">
		<linearGradient id="SVGID_16_" gradientUnits="userSpaceOnUse" x1="34.807" y1="10.2846" x2="34.807" y2="11.9409">
			<stop  offset="0" style="stop-color:#7DA03D"/>
			<stop  offset="0.392" style="stop-color:#7DA03D"/>
			<stop  offset="0.7056" style="stop-color:#6E8A3D"/>
			<stop  offset="1" style="stop-color:#63813D"/>
		</linearGradient>
		<path class="st17" d="M35.9,10.4C35.9,10.4,35.9,10.4,35.9,10.4c-0.7,0.8-1.3,0.9-1.3,0.9c0.3-0.1,0.8-0.7,1.2-1.1
			c0,0-0.1,0-0.1,0c-0.1,0-0.1,0-0.2,0c-0.1,0-0.2,0-0.2,0c-0.2,0-0.3,0.1-0.5,0.1c-0.1,0-0.3,0.1-0.4,0.2c-0.1,0-0.1,0.1-0.2,0.1
			c0,0-0.1,0.1-0.1,0.1c0,0-0.1,0.1-0.1,0.1c0,0-0.1,0.1-0.1,0.2c0,0.1-0.1,0.1-0.1,0.2c0,0.1-0.1,0.1-0.1,0.1c0,0-0.1,0.1-0.1,0.1
			c0,0,0,0,0,0s0,0,0,0c0,0,0.1,0.1,0.1,0.1c0,0,0.1,0.1,0.2,0.1c0.1,0,0.2,0.1,0.3,0.1c0.1,0,0.2,0,0.3,0c0.1,0,0.2,0,0.3,0
			c0.1,0,0.2-0.1,0.3-0.1c0.1,0,0.2-0.1,0.3-0.1c0.2-0.1,0.3-0.2,0.4-0.4c0.1-0.1,0.1-0.3,0.1-0.4c0-0.1,0-0.1,0-0.2
			C36,10.6,35.9,10.5,35.9,10.4z"/>
	</g>
	<g id="XMLID_3_">
		<linearGradient id="SVGID_17_" gradientUnits="userSpaceOnUse" x1="41.7034" y1="9.094947e-13" x2="41.7034" y2="3.0135">
			<stop  offset="0" style="stop-color:#7DA03D"/>
			<stop  offset="0.392" style="stop-color:#7DA03D"/>
			<stop  offset="0.7056" style="stop-color:#6E8A3D"/>
			<stop  offset="1" style="stop-color:#63813D"/>
		</linearGradient>
		<path class="st18" d="M41.8,0.1C41.6,0.1,41.5,0,41.4,0c-0.1,0-0.2,0-0.3,0c-0.1,0-0.2,0-0.2,0c0,0-0.1,0-0.1,0s0,0,0,0.1
			c0,0,0,0.1,0,0.2c0,0.1,0,0.1,0,0.2c0,0.1,0,0.1-0.1,0.2c0,0.1,0,0.2-0.1,0.2c0,0.1,0,0.2,0,0.2c0,0.1,0,0.2,0,0.2
			c0,0.1,0,0.2,0,0.2c0,0.2,0.1,0.3,0.2,0.5c0.1,0.2,0.2,0.3,0.4,0.5c0.1,0.1,0.2,0.1,0.2,0.2c0.1,0.1,0.2,0.1,0.2,0.2
			c0,0,0.1,0.1,0.1,0.1c0-0.6,0.1-1.7-0.2-2c0,0,0.6,0.6,0.4,2c0,0,0.1,0,0.1-0.1c0.1,0,0.1-0.1,0.2-0.2c0.1-0.1,0.1-0.1,0.2-0.2
			c0.1-0.2,0.3-0.4,0.3-0.6c0.1-0.2,0.1-0.5,0-0.7c0-0.1-0.1-0.2-0.1-0.4c-0.1-0.1-0.1-0.2-0.2-0.3c-0.1-0.1-0.2-0.2-0.3-0.3
			C42,0.3,41.9,0.2,41.8,0.1z"/>
	</g>
	<g id="XMLID_2_">
		<linearGradient id="SVGID_18_" gradientUnits="userSpaceOnUse" x1="41.8965" y1="16.9606" x2="41.8965" y2="33.5163">
			<stop  offset="0" style="stop-color:#7DA03D"/>
			<stop  offset="0.392" style="stop-color:#7DA03D"/>
			<stop  offset="0.7056" style="stop-color:#6E8A3D"/>
			<stop  offset="1" style="stop-color:#63813D"/>
		</linearGradient>
		<path class="st19" d="M42.5,28l0.3-10.6c0-0.2-0.6-0.4-0.8-0.4l-0.4,0c-0.2,0-0.6,0.1-0.7,0.2c-0.1,0-0.1,0.1-0.1,0.2L41.1,28
			c-0.3,0.1-0.5,0.2-0.7,0.3c-0.6,0.4-0.9,1.1-0.9,1.9c0,2.6,0.1,3.1,1.2,3.2l0.1-3c0-0.1,0-0.1,0.1-0.2c0.1,0,0.1-0.1,0.2-0.1
			l0.1,0c0.1,0,0.1,0,0.2,0.1c0.1,0,0.1,0.1,0.1,0.2l0.3,3.1c0.1,0,0.2,0,0.2,0c0.1,0,0.3,0,0.4,0l0.3-3.1c0-0.1,0-0.1,0.1-0.2
			c0.1,0,0.1-0.1,0.2-0.1l0.1,0c0.1,0,0.1,0,0.2,0.1c0.1,0,0.1,0.1,0.1,0.2l0.1,3c1-0.1,1-0.7,1-3.2c0-0.8-0.4-1.6-1.1-2
			C43,28.1,42.8,28.1,42.5,28z"/>
	</g>
</g>
</svg>
