<?xml version="1.0" encoding="utf-8"?>
<!-- Generator: Adobe Illustrator 22.0.0, SVG Export Plug-In . SVG Version: 6.00 Build 0)  -->
<svg version="1.1" id="Camada_1" xmlns="http://www.w3.org/2000/svg" xmlns:xlink="http://www.w3.org/1999/xlink" x="0px" y="0px"
	 viewBox="0 0 30 30" style="enable-background:new 0 0 30 30;" xml:space="preserve">
<g>
	<rect x="5" y="5.8" width="20" height="3.2"/>
	<rect x="5" y="13.4" width="20" height="3.2"/>
	<rect x="5" y="21" width="20" height="3.2"/>
</g>
<g>
	<path d="M27.8,1C28.5,1,29,1.5,29,2.2v25.6c0,0.7-0.5,1.2-1.2,1.2H2.2C1.5,29,1,28.5,1,27.8V2.2C1,1.5,1.5,1,2.2,1H27.8 M27.8,0
		H2.2C1,0,0,1,0,2.2v25.6C0,29,1,30,2.2,30h25.6c1.2,0,2.2-1,2.2-2.2V2.2C30,1,29,0,27.8,0L27.8,0z"/>
</g>
</svg>
