<?xml version="1.0" encoding="utf-8"?>
<!-- Generator: Adobe Illustrator 22.0.0, SVG Export Plug-In . SVG Version: 6.00 Build 0)  -->
<svg version="1.1" id="Camada_1" xmlns="http://www.w3.org/2000/svg" xmlns:xlink="http://www.w3.org/1999/xlink" x="0px" y="0px"
	 viewBox="0 0 30 30.2" style="enable-background:new 0 0 30 30.2;" xml:space="preserve">
<g>
	<g>
		<rect x="6" y="9.2" transform="matrix(-1.836970e-16 1 -1 -1.836970e-16 19.375 3.2917)" width="4.1" height="4.2"/>
	</g>
	<g>
		<rect x="6" y="16.6" transform="matrix(-1.836970e-16 1 -1 -1.836970e-16 26.7083 10.625)" width="4.1" height="4.2"/>
	</g>
	<g>
		<rect x="13" y="9.2" transform="matrix(-1.836970e-16 1 -1 -1.836970e-16 26.375 -3.7083)" width="4.1" height="4.2"/>
	</g>
	<g>
		<rect x="13" y="16.6" transform="matrix(-1.836970e-16 1 -1 -1.836970e-16 33.7083 3.625)" width="4.1" height="4.2"/>
	</g>
	<g>
		<rect x="20" y="9.2" transform="matrix(-1.836970e-16 1 -1 -1.836970e-16 33.375 -10.7083)" width="4.1" height="4.2"/>
	</g>
	<g>
		<rect x="20" y="16.6" transform="matrix(-1.836970e-16 1 -1 -1.836970e-16 40.7083 -3.375)" width="4.1" height="4.2"/>
	</g>
</g>
<g>
	<path d="M15,1c7.7,0,14,6.3,14,14s-6.3,14-14,14S1,22.7,1,15S7.3,1,15,1 M15,0C6.8,0,0,6.7,0,15s6.7,15,15,15s15-6.7,15-15
		S23.3,0,15,0L15,0z"/>
</g>
</svg>
