<?xml version="1.0" encoding="utf-8"?>
<!-- Generator: Adobe Illustrator 22.0.0, SVG Export Plug-In . SVG Version: 6.00 Build 0)  -->
<svg version="1.1" id="Camada_1" xmlns="http://www.w3.org/2000/svg" xmlns:xlink="http://www.w3.org/1999/xlink" x="0px" y="0px"
	 viewBox="0 0 500 250" style="enable-background:new 0 0 500 250;" xml:space="preserve">
<style type="text/css">
	.st0{fill:#CACACA;}
	.st1{fill:#828282;}
	.st2{fill:#20522A;}
</style>
<path class="st2" d="M312.5,78.1V62.5C312.5,28,284.5,0,250,0c-34.5,0-62.5,28-62.5,62.5v15.6h-46.9v132.8
	c0,21.6,17.5,39.1,39.1,39.1h140.6c21.6,0,39.1-17.5,39.1-39.1V78.1H312.5z M218.8,62.5c0-17.2,14-31.3,31.3-31.3s31.3,14,31.3,31.3
	v15.6h-62.5V62.5z M296.9,121.1c-6.5,0-11.7-5.2-11.7-11.7s5.2-11.7,11.7-11.7s11.7,5.2,11.7,11.7S303.3,121.1,296.9,121.1z
	 M203.1,121.1c-6.5,0-11.7-5.2-11.7-11.7s5.2-11.7,11.7-11.7s11.7,5.2,11.7,11.7S209.6,121.1,203.1,121.1z"/>
</svg>
