<?xml version="1.0" encoding="utf-8"?>
<!-- Generator: Adobe Illustrator 22.0.0, SVG Export Plug-In . SVG Version: 6.00 Build 0)  -->
<svg version="1.1" id="Camada_1" xmlns="http://www.w3.org/2000/svg" xmlns:xlink="http://www.w3.org/1999/xlink" x="0px" y="0px"
	 viewBox="0 0 500 250" style="enable-background:new 0 0 500 250;" xml:space="preserve">
<style type="text/css">
	.st0{fill:#CACACA;}
	.st1{fill:#828282;}
	.st2{fill:#20522A;}
</style>
<path class="st2" d="M174.7,52.8c0-5.8-1.9-10.8-5.6-14.9c-3.8-4.1-8.3-6.2-13.6-6.2c-5.3,0-9.8,2.1-13.6,6.2
	c-3.8,4.1-5.6,9.1-5.6,14.9s1.9,10.8,5.6,14.9c3.8,4.1,8.3,6.2,13.6,6.2c5.3,0,9.8-2.1,13.6-6.2C172.9,63.6,174.7,58.6,174.7,52.8z
	 M334.9,147.9c0,5.8-1.9,10.8-5.6,14.9l-73.7,81.2c-3.9,4.1-8.5,6.1-13.7,6.1c-5.3,0-9.8-2-13.5-6.1L121.2,125.7
	c-3.8-4.1-7-9.6-9.7-16.7c-2.7-7-4-13.5-4-19.3V21.1c0-5.7,1.9-10.7,5.7-14.9S121.5,0,126.7,0h62.4c5.3,0,11.2,1.5,17.6,4.4
	c6.4,2.9,11.5,6.5,15.3,10.6l107.3,117.8C333,137.1,334.9,142.1,334.9,147.9z M392.5,147.9c0,5.8-1.9,10.8-5.6,14.9l-73.7,81.2
	c-3.9,4.1-8.5,6.1-13.7,6.1c-3.6,0-6.6-0.8-8.9-2.3c-2.3-1.5-5-4-8-7.4l70.5-77.6c3.7-4.1,5.6-9,5.6-14.9c0-5.7-1.9-10.7-5.6-15
	L246,15c-3.8-4.2-8.9-7.7-15.3-10.6C224.3,1.5,218.5,0,213.2,0h33.6c5.3,0,11.2,1.5,17.6,4.4c6.4,2.9,11.5,6.5,15.3,10.6
	l107.3,117.8C390.6,137.1,392.5,142.1,392.5,147.9z"/>
</svg>
